G04 #@! TF.GenerationSoftware,KiCad,Pcbnew,5.1.5+dfsg1-2build2*
G04 #@! TF.CreationDate,2021-09-26T16:39:44+00:00*
G04 #@! TF.ProjectId,NeptuneToolboard,54726953-7465-4705-946f-6f6c626f6172,rev?*
G04 #@! TF.SameCoordinates,Original*
G04 #@! TF.FileFunction,Soldermask,Bot*
G04 #@! TF.FilePolarity,Negative*
%FSLAX46Y46*%
G04 Gerber Fmt 4.6, Leading zero omitted, Abs format (unit mm)*
G04 Created by KiCad (PCBNEW 5.1.5+dfsg1-2build2) date 2021-09-26 16:39:44*
%MOMM*%
%LPD*%
G04 APERTURE LIST*
G04 #@! TA.AperFunction,Profile*
%ADD10C,0.050000*%
G04 #@! TD*
%ADD11C,3.000000*%
%ADD12C,0.350000*%
%ADD13O,2.020000X1.500000*%
%ADD14O,2.000000X1.700000*%
%ADD15O,1.700000X1.700000*%
%ADD16R,1.700000X1.700000*%
%ADD17O,1.200000X1.750000*%
%ADD18C,2.000000*%
%ADD19O,1.700000X1.950000*%
%ADD20C,3.200000*%
%ADD21O,1.950000X1.700000*%
%ADD22O,1.700000X2.000000*%
%ADD23C,1.450000*%
%ADD24O,1.900000X1.200000*%
G04 APERTURE END LIST*
D10*
X140500000Y-132000000D02*
G75*
G02X139500000Y-131000000I0J1000000D01*
G01*
X209500000Y-131000000D02*
G75*
G02X208500000Y-132000000I-1000000J0D01*
G01*
X208500000Y-52000000D02*
G75*
G02X209500000Y-53000000I0J-1000000D01*
G01*
X139500000Y-53000000D02*
G75*
G02X140500000Y-52000000I1000000J0D01*
G01*
X140500000Y-52000000D02*
X208500000Y-52000000D01*
X139500000Y-131000000D02*
X139500000Y-53000000D01*
X208500000Y-132000000D02*
X140500000Y-132000000D01*
X209500000Y-53000000D02*
X209500000Y-131000000D01*
D11*
G04 #@! TO.C,J11*
X201320000Y-95500000D03*
D12*
G36*
X197784504Y-96251204D02*
G01*
X197808773Y-96254804D01*
X197832571Y-96260765D01*
X197855671Y-96269030D01*
X197877849Y-96279520D01*
X197898893Y-96292133D01*
X197918598Y-96306747D01*
X197936777Y-96323223D01*
X197953253Y-96341402D01*
X197967867Y-96361107D01*
X197980480Y-96382151D01*
X197990970Y-96404329D01*
X197999235Y-96427429D01*
X198005196Y-96451227D01*
X198008796Y-96475496D01*
X198010000Y-96500000D01*
X198010000Y-97500000D01*
X198008796Y-97524504D01*
X198005196Y-97548773D01*
X197999235Y-97572571D01*
X197990970Y-97595671D01*
X197980480Y-97617849D01*
X197967867Y-97638893D01*
X197953253Y-97658598D01*
X197936777Y-97676777D01*
X197918598Y-97693253D01*
X197898893Y-97707867D01*
X197877849Y-97720480D01*
X197855671Y-97730970D01*
X197832571Y-97739235D01*
X197808773Y-97745196D01*
X197784504Y-97748796D01*
X197760000Y-97750000D01*
X196240000Y-97750000D01*
X196215496Y-97748796D01*
X196191227Y-97745196D01*
X196167429Y-97739235D01*
X196144329Y-97730970D01*
X196122151Y-97720480D01*
X196101107Y-97707867D01*
X196081402Y-97693253D01*
X196063223Y-97676777D01*
X196046747Y-97658598D01*
X196032133Y-97638893D01*
X196019520Y-97617849D01*
X196009030Y-97595671D01*
X196000765Y-97572571D01*
X195994804Y-97548773D01*
X195991204Y-97524504D01*
X195990000Y-97500000D01*
X195990000Y-96500000D01*
X195991204Y-96475496D01*
X195994804Y-96451227D01*
X196000765Y-96427429D01*
X196009030Y-96404329D01*
X196019520Y-96382151D01*
X196032133Y-96361107D01*
X196046747Y-96341402D01*
X196063223Y-96323223D01*
X196081402Y-96306747D01*
X196101107Y-96292133D01*
X196122151Y-96279520D01*
X196144329Y-96269030D01*
X196167429Y-96260765D01*
X196191227Y-96254804D01*
X196215496Y-96251204D01*
X196240000Y-96250000D01*
X197760000Y-96250000D01*
X197784504Y-96251204D01*
G37*
D13*
X197000000Y-94000000D03*
G04 #@! TD*
D12*
G04 #@! TO.C,J10*
G36*
X149774504Y-113251204D02*
G01*
X149798773Y-113254804D01*
X149822571Y-113260765D01*
X149845671Y-113269030D01*
X149867849Y-113279520D01*
X149888893Y-113292133D01*
X149908598Y-113306747D01*
X149926777Y-113323223D01*
X149943253Y-113341402D01*
X149957867Y-113361107D01*
X149970480Y-113382151D01*
X149980970Y-113404329D01*
X149989235Y-113427429D01*
X149995196Y-113451227D01*
X149998796Y-113475496D01*
X150000000Y-113500000D01*
X150000000Y-114700000D01*
X149998796Y-114724504D01*
X149995196Y-114748773D01*
X149989235Y-114772571D01*
X149980970Y-114795671D01*
X149970480Y-114817849D01*
X149957867Y-114838893D01*
X149943253Y-114858598D01*
X149926777Y-114876777D01*
X149908598Y-114893253D01*
X149888893Y-114907867D01*
X149867849Y-114920480D01*
X149845671Y-114930970D01*
X149822571Y-114939235D01*
X149798773Y-114945196D01*
X149774504Y-114948796D01*
X149750000Y-114950000D01*
X148250000Y-114950000D01*
X148225496Y-114948796D01*
X148201227Y-114945196D01*
X148177429Y-114939235D01*
X148154329Y-114930970D01*
X148132151Y-114920480D01*
X148111107Y-114907867D01*
X148091402Y-114893253D01*
X148073223Y-114876777D01*
X148056747Y-114858598D01*
X148042133Y-114838893D01*
X148029520Y-114817849D01*
X148019030Y-114795671D01*
X148010765Y-114772571D01*
X148004804Y-114748773D01*
X148001204Y-114724504D01*
X148000000Y-114700000D01*
X148000000Y-113500000D01*
X148001204Y-113475496D01*
X148004804Y-113451227D01*
X148010765Y-113427429D01*
X148019030Y-113404329D01*
X148029520Y-113382151D01*
X148042133Y-113361107D01*
X148056747Y-113341402D01*
X148073223Y-113323223D01*
X148091402Y-113306747D01*
X148111107Y-113292133D01*
X148132151Y-113279520D01*
X148154329Y-113269030D01*
X148177429Y-113260765D01*
X148201227Y-113254804D01*
X148225496Y-113251204D01*
X148250000Y-113250000D01*
X149750000Y-113250000D01*
X149774504Y-113251204D01*
G37*
D14*
X149000000Y-111600000D03*
G04 #@! TD*
D11*
G04 #@! TO.C,J13*
X148180000Y-124500000D03*
D12*
G36*
X153284504Y-122251204D02*
G01*
X153308773Y-122254804D01*
X153332571Y-122260765D01*
X153355671Y-122269030D01*
X153377849Y-122279520D01*
X153398893Y-122292133D01*
X153418598Y-122306747D01*
X153436777Y-122323223D01*
X153453253Y-122341402D01*
X153467867Y-122361107D01*
X153480480Y-122382151D01*
X153490970Y-122404329D01*
X153499235Y-122427429D01*
X153505196Y-122451227D01*
X153508796Y-122475496D01*
X153510000Y-122500000D01*
X153510000Y-123500000D01*
X153508796Y-123524504D01*
X153505196Y-123548773D01*
X153499235Y-123572571D01*
X153490970Y-123595671D01*
X153480480Y-123617849D01*
X153467867Y-123638893D01*
X153453253Y-123658598D01*
X153436777Y-123676777D01*
X153418598Y-123693253D01*
X153398893Y-123707867D01*
X153377849Y-123720480D01*
X153355671Y-123730970D01*
X153332571Y-123739235D01*
X153308773Y-123745196D01*
X153284504Y-123748796D01*
X153260000Y-123750000D01*
X151740000Y-123750000D01*
X151715496Y-123748796D01*
X151691227Y-123745196D01*
X151667429Y-123739235D01*
X151644329Y-123730970D01*
X151622151Y-123720480D01*
X151601107Y-123707867D01*
X151581402Y-123693253D01*
X151563223Y-123676777D01*
X151546747Y-123658598D01*
X151532133Y-123638893D01*
X151519520Y-123617849D01*
X151509030Y-123595671D01*
X151500765Y-123572571D01*
X151494804Y-123548773D01*
X151491204Y-123524504D01*
X151490000Y-123500000D01*
X151490000Y-122500000D01*
X151491204Y-122475496D01*
X151494804Y-122451227D01*
X151500765Y-122427429D01*
X151509030Y-122404329D01*
X151519520Y-122382151D01*
X151532133Y-122361107D01*
X151546747Y-122341402D01*
X151563223Y-122323223D01*
X151581402Y-122306747D01*
X151601107Y-122292133D01*
X151622151Y-122279520D01*
X151644329Y-122269030D01*
X151667429Y-122260765D01*
X151691227Y-122254804D01*
X151715496Y-122251204D01*
X151740000Y-122250000D01*
X153260000Y-122250000D01*
X153284504Y-122251204D01*
G37*
D13*
X152500000Y-126000000D03*
G04 #@! TD*
D15*
G04 #@! TO.C,J17*
X199040000Y-104380000D03*
X196500000Y-104380000D03*
X199040000Y-106920000D03*
X196500000Y-106920000D03*
X199040000Y-109460000D03*
X196500000Y-109460000D03*
X199040000Y-112000000D03*
D16*
X196500000Y-112000000D03*
G04 #@! TD*
D17*
G04 #@! TO.C,J16*
X199000000Y-122900000D03*
X201000000Y-122900000D03*
X203000000Y-122900000D03*
X205000000Y-122900000D03*
D12*
G36*
X207374505Y-122026204D02*
G01*
X207398773Y-122029804D01*
X207422572Y-122035765D01*
X207445671Y-122044030D01*
X207467850Y-122054520D01*
X207488893Y-122067132D01*
X207508599Y-122081747D01*
X207526777Y-122098223D01*
X207543253Y-122116401D01*
X207557868Y-122136107D01*
X207570480Y-122157150D01*
X207580970Y-122179329D01*
X207589235Y-122202428D01*
X207595196Y-122226227D01*
X207598796Y-122250495D01*
X207600000Y-122274999D01*
X207600000Y-123525001D01*
X207598796Y-123549505D01*
X207595196Y-123573773D01*
X207589235Y-123597572D01*
X207580970Y-123620671D01*
X207570480Y-123642850D01*
X207557868Y-123663893D01*
X207543253Y-123683599D01*
X207526777Y-123701777D01*
X207508599Y-123718253D01*
X207488893Y-123732868D01*
X207467850Y-123745480D01*
X207445671Y-123755970D01*
X207422572Y-123764235D01*
X207398773Y-123770196D01*
X207374505Y-123773796D01*
X207350001Y-123775000D01*
X206649999Y-123775000D01*
X206625495Y-123773796D01*
X206601227Y-123770196D01*
X206577428Y-123764235D01*
X206554329Y-123755970D01*
X206532150Y-123745480D01*
X206511107Y-123732868D01*
X206491401Y-123718253D01*
X206473223Y-123701777D01*
X206456747Y-123683599D01*
X206442132Y-123663893D01*
X206429520Y-123642850D01*
X206419030Y-123620671D01*
X206410765Y-123597572D01*
X206404804Y-123573773D01*
X206401204Y-123549505D01*
X206400000Y-123525001D01*
X206400000Y-122274999D01*
X206401204Y-122250495D01*
X206404804Y-122226227D01*
X206410765Y-122202428D01*
X206419030Y-122179329D01*
X206429520Y-122157150D01*
X206442132Y-122136107D01*
X206456747Y-122116401D01*
X206473223Y-122098223D01*
X206491401Y-122081747D01*
X206511107Y-122067132D01*
X206532150Y-122054520D01*
X206554329Y-122044030D01*
X206577428Y-122035765D01*
X206601227Y-122029804D01*
X206625495Y-122026204D01*
X206649999Y-122025000D01*
X207350001Y-122025000D01*
X207374505Y-122026204D01*
G37*
G04 #@! TD*
D18*
G04 #@! TO.C,U5*
X151759999Y-55180000D03*
X154299999Y-55180000D03*
X149219999Y-55180000D03*
X149219999Y-57720000D03*
X149219999Y-60260000D03*
X149219999Y-62800000D03*
X149219999Y-65340000D03*
X149219999Y-67880000D03*
X149219999Y-70420000D03*
X149219999Y-72960000D03*
X161919999Y-55180000D03*
X161919999Y-57720000D03*
X161919999Y-60260000D03*
X161919999Y-62800000D03*
X161919999Y-65340000D03*
X161919999Y-67880000D03*
X161919999Y-70420000D03*
X161919999Y-72960000D03*
G04 #@! TD*
G04 #@! TO.C,U6*
X167399999Y-55180000D03*
X169939999Y-55180000D03*
X164859999Y-55180000D03*
X164859999Y-57720000D03*
X164859999Y-60260000D03*
X164859999Y-62800000D03*
X164859999Y-65340000D03*
X164859999Y-67880000D03*
X164859999Y-70420000D03*
X164859999Y-72960000D03*
X177559999Y-55180000D03*
X177559999Y-57720000D03*
X177559999Y-60260000D03*
X177559999Y-62800000D03*
X177559999Y-65340000D03*
X177559999Y-67880000D03*
X177559999Y-70420000D03*
X177559999Y-72960000D03*
G04 #@! TD*
G04 #@! TO.C,U7*
X183039999Y-55180000D03*
X185579999Y-55180000D03*
X180499999Y-55180000D03*
X180499999Y-57720000D03*
X180499999Y-60260000D03*
X180499999Y-62800000D03*
X180499999Y-65340000D03*
X180499999Y-67880000D03*
X180499999Y-70420000D03*
X180499999Y-72960000D03*
X193199999Y-55180000D03*
X193199999Y-57720000D03*
X193199999Y-60260000D03*
X193199999Y-62800000D03*
X193199999Y-65340000D03*
X193199999Y-67880000D03*
X193199999Y-70420000D03*
X193199999Y-72960000D03*
G04 #@! TD*
D19*
G04 #@! TO.C,J15*
X201500000Y-69500000D03*
X204000000Y-69500000D03*
D12*
G36*
X207124504Y-68526204D02*
G01*
X207148773Y-68529804D01*
X207172571Y-68535765D01*
X207195671Y-68544030D01*
X207217849Y-68554520D01*
X207238893Y-68567133D01*
X207258598Y-68581747D01*
X207276777Y-68598223D01*
X207293253Y-68616402D01*
X207307867Y-68636107D01*
X207320480Y-68657151D01*
X207330970Y-68679329D01*
X207339235Y-68702429D01*
X207345196Y-68726227D01*
X207348796Y-68750496D01*
X207350000Y-68775000D01*
X207350000Y-70225000D01*
X207348796Y-70249504D01*
X207345196Y-70273773D01*
X207339235Y-70297571D01*
X207330970Y-70320671D01*
X207320480Y-70342849D01*
X207307867Y-70363893D01*
X207293253Y-70383598D01*
X207276777Y-70401777D01*
X207258598Y-70418253D01*
X207238893Y-70432867D01*
X207217849Y-70445480D01*
X207195671Y-70455970D01*
X207172571Y-70464235D01*
X207148773Y-70470196D01*
X207124504Y-70473796D01*
X207100000Y-70475000D01*
X205900000Y-70475000D01*
X205875496Y-70473796D01*
X205851227Y-70470196D01*
X205827429Y-70464235D01*
X205804329Y-70455970D01*
X205782151Y-70445480D01*
X205761107Y-70432867D01*
X205741402Y-70418253D01*
X205723223Y-70401777D01*
X205706747Y-70383598D01*
X205692133Y-70363893D01*
X205679520Y-70342849D01*
X205669030Y-70320671D01*
X205660765Y-70297571D01*
X205654804Y-70273773D01*
X205651204Y-70249504D01*
X205650000Y-70225000D01*
X205650000Y-68775000D01*
X205651204Y-68750496D01*
X205654804Y-68726227D01*
X205660765Y-68702429D01*
X205669030Y-68679329D01*
X205679520Y-68657151D01*
X205692133Y-68636107D01*
X205706747Y-68616402D01*
X205723223Y-68598223D01*
X205741402Y-68581747D01*
X205761107Y-68567133D01*
X205782151Y-68554520D01*
X205804329Y-68544030D01*
X205827429Y-68535765D01*
X205851227Y-68529804D01*
X205875496Y-68526204D01*
X205900000Y-68525000D01*
X207100000Y-68525000D01*
X207124504Y-68526204D01*
G37*
G04 #@! TD*
D20*
G04 #@! TO.C,H3*
X192500000Y-124000000D03*
G04 #@! TD*
G04 #@! TO.C,H2*
X192500000Y-86000000D03*
G04 #@! TD*
G04 #@! TO.C,H1*
X150000000Y-105000000D03*
G04 #@! TD*
D16*
G04 #@! TO.C,J1*
X180100000Y-93100000D03*
D15*
X180100000Y-95640000D03*
X182640000Y-93100000D03*
X182640000Y-95640000D03*
X185180000Y-93100000D03*
X185180000Y-95640000D03*
G04 #@! TD*
D21*
G04 #@! TO.C,J2*
X158500000Y-60300000D03*
X158500000Y-62800000D03*
X158500000Y-65300000D03*
D12*
G36*
X159249504Y-66951204D02*
G01*
X159273773Y-66954804D01*
X159297571Y-66960765D01*
X159320671Y-66969030D01*
X159342849Y-66979520D01*
X159363893Y-66992133D01*
X159383598Y-67006747D01*
X159401777Y-67023223D01*
X159418253Y-67041402D01*
X159432867Y-67061107D01*
X159445480Y-67082151D01*
X159455970Y-67104329D01*
X159464235Y-67127429D01*
X159470196Y-67151227D01*
X159473796Y-67175496D01*
X159475000Y-67200000D01*
X159475000Y-68400000D01*
X159473796Y-68424504D01*
X159470196Y-68448773D01*
X159464235Y-68472571D01*
X159455970Y-68495671D01*
X159445480Y-68517849D01*
X159432867Y-68538893D01*
X159418253Y-68558598D01*
X159401777Y-68576777D01*
X159383598Y-68593253D01*
X159363893Y-68607867D01*
X159342849Y-68620480D01*
X159320671Y-68630970D01*
X159297571Y-68639235D01*
X159273773Y-68645196D01*
X159249504Y-68648796D01*
X159225000Y-68650000D01*
X157775000Y-68650000D01*
X157750496Y-68648796D01*
X157726227Y-68645196D01*
X157702429Y-68639235D01*
X157679329Y-68630970D01*
X157657151Y-68620480D01*
X157636107Y-68607867D01*
X157616402Y-68593253D01*
X157598223Y-68576777D01*
X157581747Y-68558598D01*
X157567133Y-68538893D01*
X157554520Y-68517849D01*
X157544030Y-68495671D01*
X157535765Y-68472571D01*
X157529804Y-68448773D01*
X157526204Y-68424504D01*
X157525000Y-68400000D01*
X157525000Y-67200000D01*
X157526204Y-67175496D01*
X157529804Y-67151227D01*
X157535765Y-67127429D01*
X157544030Y-67104329D01*
X157554520Y-67082151D01*
X157567133Y-67061107D01*
X157581747Y-67041402D01*
X157598223Y-67023223D01*
X157616402Y-67006747D01*
X157636107Y-66992133D01*
X157657151Y-66979520D01*
X157679329Y-66969030D01*
X157702429Y-66960765D01*
X157726227Y-66954804D01*
X157750496Y-66951204D01*
X157775000Y-66950000D01*
X159225000Y-66950000D01*
X159249504Y-66951204D01*
G37*
G04 #@! TD*
G04 #@! TO.C,J3*
G36*
X174849504Y-66951204D02*
G01*
X174873773Y-66954804D01*
X174897571Y-66960765D01*
X174920671Y-66969030D01*
X174942849Y-66979520D01*
X174963893Y-66992133D01*
X174983598Y-67006747D01*
X175001777Y-67023223D01*
X175018253Y-67041402D01*
X175032867Y-67061107D01*
X175045480Y-67082151D01*
X175055970Y-67104329D01*
X175064235Y-67127429D01*
X175070196Y-67151227D01*
X175073796Y-67175496D01*
X175075000Y-67200000D01*
X175075000Y-68400000D01*
X175073796Y-68424504D01*
X175070196Y-68448773D01*
X175064235Y-68472571D01*
X175055970Y-68495671D01*
X175045480Y-68517849D01*
X175032867Y-68538893D01*
X175018253Y-68558598D01*
X175001777Y-68576777D01*
X174983598Y-68593253D01*
X174963893Y-68607867D01*
X174942849Y-68620480D01*
X174920671Y-68630970D01*
X174897571Y-68639235D01*
X174873773Y-68645196D01*
X174849504Y-68648796D01*
X174825000Y-68650000D01*
X173375000Y-68650000D01*
X173350496Y-68648796D01*
X173326227Y-68645196D01*
X173302429Y-68639235D01*
X173279329Y-68630970D01*
X173257151Y-68620480D01*
X173236107Y-68607867D01*
X173216402Y-68593253D01*
X173198223Y-68576777D01*
X173181747Y-68558598D01*
X173167133Y-68538893D01*
X173154520Y-68517849D01*
X173144030Y-68495671D01*
X173135765Y-68472571D01*
X173129804Y-68448773D01*
X173126204Y-68424504D01*
X173125000Y-68400000D01*
X173125000Y-67200000D01*
X173126204Y-67175496D01*
X173129804Y-67151227D01*
X173135765Y-67127429D01*
X173144030Y-67104329D01*
X173154520Y-67082151D01*
X173167133Y-67061107D01*
X173181747Y-67041402D01*
X173198223Y-67023223D01*
X173216402Y-67006747D01*
X173236107Y-66992133D01*
X173257151Y-66979520D01*
X173279329Y-66969030D01*
X173302429Y-66960765D01*
X173326227Y-66954804D01*
X173350496Y-66951204D01*
X173375000Y-66950000D01*
X174825000Y-66950000D01*
X174849504Y-66951204D01*
G37*
D21*
X174100000Y-65300000D03*
X174100000Y-62800000D03*
X174100000Y-60300000D03*
G04 #@! TD*
G04 #@! TO.C,J4*
X189750000Y-60300000D03*
X189750000Y-62800000D03*
X189750000Y-65300000D03*
D12*
G36*
X190499504Y-66951204D02*
G01*
X190523773Y-66954804D01*
X190547571Y-66960765D01*
X190570671Y-66969030D01*
X190592849Y-66979520D01*
X190613893Y-66992133D01*
X190633598Y-67006747D01*
X190651777Y-67023223D01*
X190668253Y-67041402D01*
X190682867Y-67061107D01*
X190695480Y-67082151D01*
X190705970Y-67104329D01*
X190714235Y-67127429D01*
X190720196Y-67151227D01*
X190723796Y-67175496D01*
X190725000Y-67200000D01*
X190725000Y-68400000D01*
X190723796Y-68424504D01*
X190720196Y-68448773D01*
X190714235Y-68472571D01*
X190705970Y-68495671D01*
X190695480Y-68517849D01*
X190682867Y-68538893D01*
X190668253Y-68558598D01*
X190651777Y-68576777D01*
X190633598Y-68593253D01*
X190613893Y-68607867D01*
X190592849Y-68620480D01*
X190570671Y-68630970D01*
X190547571Y-68639235D01*
X190523773Y-68645196D01*
X190499504Y-68648796D01*
X190475000Y-68650000D01*
X189025000Y-68650000D01*
X189000496Y-68648796D01*
X188976227Y-68645196D01*
X188952429Y-68639235D01*
X188929329Y-68630970D01*
X188907151Y-68620480D01*
X188886107Y-68607867D01*
X188866402Y-68593253D01*
X188848223Y-68576777D01*
X188831747Y-68558598D01*
X188817133Y-68538893D01*
X188804520Y-68517849D01*
X188794030Y-68495671D01*
X188785765Y-68472571D01*
X188779804Y-68448773D01*
X188776204Y-68424504D01*
X188775000Y-68400000D01*
X188775000Y-67200000D01*
X188776204Y-67175496D01*
X188779804Y-67151227D01*
X188785765Y-67127429D01*
X188794030Y-67104329D01*
X188804520Y-67082151D01*
X188817133Y-67061107D01*
X188831747Y-67041402D01*
X188848223Y-67023223D01*
X188866402Y-67006747D01*
X188886107Y-66992133D01*
X188907151Y-66979520D01*
X188929329Y-66969030D01*
X188952429Y-66960765D01*
X188976227Y-66954804D01*
X189000496Y-66951204D01*
X189025000Y-66950000D01*
X190475000Y-66950000D01*
X190499504Y-66951204D01*
G37*
G04 #@! TD*
D19*
G04 #@! TO.C,J12*
X201500000Y-62500000D03*
X204000000Y-62500000D03*
D12*
G36*
X207124504Y-61526204D02*
G01*
X207148773Y-61529804D01*
X207172571Y-61535765D01*
X207195671Y-61544030D01*
X207217849Y-61554520D01*
X207238893Y-61567133D01*
X207258598Y-61581747D01*
X207276777Y-61598223D01*
X207293253Y-61616402D01*
X207307867Y-61636107D01*
X207320480Y-61657151D01*
X207330970Y-61679329D01*
X207339235Y-61702429D01*
X207345196Y-61726227D01*
X207348796Y-61750496D01*
X207350000Y-61775000D01*
X207350000Y-63225000D01*
X207348796Y-63249504D01*
X207345196Y-63273773D01*
X207339235Y-63297571D01*
X207330970Y-63320671D01*
X207320480Y-63342849D01*
X207307867Y-63363893D01*
X207293253Y-63383598D01*
X207276777Y-63401777D01*
X207258598Y-63418253D01*
X207238893Y-63432867D01*
X207217849Y-63445480D01*
X207195671Y-63455970D01*
X207172571Y-63464235D01*
X207148773Y-63470196D01*
X207124504Y-63473796D01*
X207100000Y-63475000D01*
X205900000Y-63475000D01*
X205875496Y-63473796D01*
X205851227Y-63470196D01*
X205827429Y-63464235D01*
X205804329Y-63455970D01*
X205782151Y-63445480D01*
X205761107Y-63432867D01*
X205741402Y-63418253D01*
X205723223Y-63401777D01*
X205706747Y-63383598D01*
X205692133Y-63363893D01*
X205679520Y-63342849D01*
X205669030Y-63320671D01*
X205660765Y-63297571D01*
X205654804Y-63273773D01*
X205651204Y-63249504D01*
X205650000Y-63225000D01*
X205650000Y-61775000D01*
X205651204Y-61750496D01*
X205654804Y-61726227D01*
X205660765Y-61702429D01*
X205669030Y-61679329D01*
X205679520Y-61657151D01*
X205692133Y-61636107D01*
X205706747Y-61616402D01*
X205723223Y-61598223D01*
X205741402Y-61581747D01*
X205761107Y-61567133D01*
X205782151Y-61554520D01*
X205804329Y-61544030D01*
X205827429Y-61535765D01*
X205851227Y-61529804D01*
X205875496Y-61526204D01*
X205900000Y-61525000D01*
X207100000Y-61525000D01*
X207124504Y-61526204D01*
G37*
G04 #@! TD*
G04 #@! TO.C,J9*
G36*
X207124504Y-54526204D02*
G01*
X207148773Y-54529804D01*
X207172571Y-54535765D01*
X207195671Y-54544030D01*
X207217849Y-54554520D01*
X207238893Y-54567133D01*
X207258598Y-54581747D01*
X207276777Y-54598223D01*
X207293253Y-54616402D01*
X207307867Y-54636107D01*
X207320480Y-54657151D01*
X207330970Y-54679329D01*
X207339235Y-54702429D01*
X207345196Y-54726227D01*
X207348796Y-54750496D01*
X207350000Y-54775000D01*
X207350000Y-56225000D01*
X207348796Y-56249504D01*
X207345196Y-56273773D01*
X207339235Y-56297571D01*
X207330970Y-56320671D01*
X207320480Y-56342849D01*
X207307867Y-56363893D01*
X207293253Y-56383598D01*
X207276777Y-56401777D01*
X207258598Y-56418253D01*
X207238893Y-56432867D01*
X207217849Y-56445480D01*
X207195671Y-56455970D01*
X207172571Y-56464235D01*
X207148773Y-56470196D01*
X207124504Y-56473796D01*
X207100000Y-56475000D01*
X205900000Y-56475000D01*
X205875496Y-56473796D01*
X205851227Y-56470196D01*
X205827429Y-56464235D01*
X205804329Y-56455970D01*
X205782151Y-56445480D01*
X205761107Y-56432867D01*
X205741402Y-56418253D01*
X205723223Y-56401777D01*
X205706747Y-56383598D01*
X205692133Y-56363893D01*
X205679520Y-56342849D01*
X205669030Y-56320671D01*
X205660765Y-56297571D01*
X205654804Y-56273773D01*
X205651204Y-56249504D01*
X205650000Y-56225000D01*
X205650000Y-54775000D01*
X205651204Y-54750496D01*
X205654804Y-54726227D01*
X205660765Y-54702429D01*
X205669030Y-54679329D01*
X205679520Y-54657151D01*
X205692133Y-54636107D01*
X205706747Y-54616402D01*
X205723223Y-54598223D01*
X205741402Y-54581747D01*
X205761107Y-54567133D01*
X205782151Y-54554520D01*
X205804329Y-54544030D01*
X205827429Y-54535765D01*
X205851227Y-54529804D01*
X205875496Y-54526204D01*
X205900000Y-54525000D01*
X207100000Y-54525000D01*
X207124504Y-54526204D01*
G37*
D19*
X204000000Y-55500000D03*
X201500000Y-55500000D03*
G04 #@! TD*
D22*
G04 #@! TO.C,J6*
X204000000Y-84000000D03*
D12*
G36*
X207124504Y-83001204D02*
G01*
X207148773Y-83004804D01*
X207172571Y-83010765D01*
X207195671Y-83019030D01*
X207217849Y-83029520D01*
X207238893Y-83042133D01*
X207258598Y-83056747D01*
X207276777Y-83073223D01*
X207293253Y-83091402D01*
X207307867Y-83111107D01*
X207320480Y-83132151D01*
X207330970Y-83154329D01*
X207339235Y-83177429D01*
X207345196Y-83201227D01*
X207348796Y-83225496D01*
X207350000Y-83250000D01*
X207350000Y-84750000D01*
X207348796Y-84774504D01*
X207345196Y-84798773D01*
X207339235Y-84822571D01*
X207330970Y-84845671D01*
X207320480Y-84867849D01*
X207307867Y-84888893D01*
X207293253Y-84908598D01*
X207276777Y-84926777D01*
X207258598Y-84943253D01*
X207238893Y-84957867D01*
X207217849Y-84970480D01*
X207195671Y-84980970D01*
X207172571Y-84989235D01*
X207148773Y-84995196D01*
X207124504Y-84998796D01*
X207100000Y-85000000D01*
X205900000Y-85000000D01*
X205875496Y-84998796D01*
X205851227Y-84995196D01*
X205827429Y-84989235D01*
X205804329Y-84980970D01*
X205782151Y-84970480D01*
X205761107Y-84957867D01*
X205741402Y-84943253D01*
X205723223Y-84926777D01*
X205706747Y-84908598D01*
X205692133Y-84888893D01*
X205679520Y-84867849D01*
X205669030Y-84845671D01*
X205660765Y-84822571D01*
X205654804Y-84798773D01*
X205651204Y-84774504D01*
X205650000Y-84750000D01*
X205650000Y-83250000D01*
X205651204Y-83225496D01*
X205654804Y-83201227D01*
X205660765Y-83177429D01*
X205669030Y-83154329D01*
X205679520Y-83132151D01*
X205692133Y-83111107D01*
X205706747Y-83091402D01*
X205723223Y-83073223D01*
X205741402Y-83056747D01*
X205761107Y-83042133D01*
X205782151Y-83029520D01*
X205804329Y-83019030D01*
X205827429Y-83010765D01*
X205851227Y-83004804D01*
X205875496Y-83001204D01*
X205900000Y-83000000D01*
X207100000Y-83000000D01*
X207124504Y-83001204D01*
G37*
G04 #@! TD*
G04 #@! TO.C,J7*
G36*
X207124504Y-75501204D02*
G01*
X207148773Y-75504804D01*
X207172571Y-75510765D01*
X207195671Y-75519030D01*
X207217849Y-75529520D01*
X207238893Y-75542133D01*
X207258598Y-75556747D01*
X207276777Y-75573223D01*
X207293253Y-75591402D01*
X207307867Y-75611107D01*
X207320480Y-75632151D01*
X207330970Y-75654329D01*
X207339235Y-75677429D01*
X207345196Y-75701227D01*
X207348796Y-75725496D01*
X207350000Y-75750000D01*
X207350000Y-77250000D01*
X207348796Y-77274504D01*
X207345196Y-77298773D01*
X207339235Y-77322571D01*
X207330970Y-77345671D01*
X207320480Y-77367849D01*
X207307867Y-77388893D01*
X207293253Y-77408598D01*
X207276777Y-77426777D01*
X207258598Y-77443253D01*
X207238893Y-77457867D01*
X207217849Y-77470480D01*
X207195671Y-77480970D01*
X207172571Y-77489235D01*
X207148773Y-77495196D01*
X207124504Y-77498796D01*
X207100000Y-77500000D01*
X205900000Y-77500000D01*
X205875496Y-77498796D01*
X205851227Y-77495196D01*
X205827429Y-77489235D01*
X205804329Y-77480970D01*
X205782151Y-77470480D01*
X205761107Y-77457867D01*
X205741402Y-77443253D01*
X205723223Y-77426777D01*
X205706747Y-77408598D01*
X205692133Y-77388893D01*
X205679520Y-77367849D01*
X205669030Y-77345671D01*
X205660765Y-77322571D01*
X205654804Y-77298773D01*
X205651204Y-77274504D01*
X205650000Y-77250000D01*
X205650000Y-75750000D01*
X205651204Y-75725496D01*
X205654804Y-75701227D01*
X205660765Y-75677429D01*
X205669030Y-75654329D01*
X205679520Y-75632151D01*
X205692133Y-75611107D01*
X205706747Y-75591402D01*
X205723223Y-75573223D01*
X205741402Y-75556747D01*
X205761107Y-75542133D01*
X205782151Y-75529520D01*
X205804329Y-75519030D01*
X205827429Y-75510765D01*
X205851227Y-75504804D01*
X205875496Y-75501204D01*
X205900000Y-75500000D01*
X207100000Y-75500000D01*
X207124504Y-75501204D01*
G37*
D22*
X204000000Y-76500000D03*
G04 #@! TD*
G04 #@! TO.C,J5*
X142500000Y-76500000D03*
D12*
G36*
X145624504Y-75501204D02*
G01*
X145648773Y-75504804D01*
X145672571Y-75510765D01*
X145695671Y-75519030D01*
X145717849Y-75529520D01*
X145738893Y-75542133D01*
X145758598Y-75556747D01*
X145776777Y-75573223D01*
X145793253Y-75591402D01*
X145807867Y-75611107D01*
X145820480Y-75632151D01*
X145830970Y-75654329D01*
X145839235Y-75677429D01*
X145845196Y-75701227D01*
X145848796Y-75725496D01*
X145850000Y-75750000D01*
X145850000Y-77250000D01*
X145848796Y-77274504D01*
X145845196Y-77298773D01*
X145839235Y-77322571D01*
X145830970Y-77345671D01*
X145820480Y-77367849D01*
X145807867Y-77388893D01*
X145793253Y-77408598D01*
X145776777Y-77426777D01*
X145758598Y-77443253D01*
X145738893Y-77457867D01*
X145717849Y-77470480D01*
X145695671Y-77480970D01*
X145672571Y-77489235D01*
X145648773Y-77495196D01*
X145624504Y-77498796D01*
X145600000Y-77500000D01*
X144400000Y-77500000D01*
X144375496Y-77498796D01*
X144351227Y-77495196D01*
X144327429Y-77489235D01*
X144304329Y-77480970D01*
X144282151Y-77470480D01*
X144261107Y-77457867D01*
X144241402Y-77443253D01*
X144223223Y-77426777D01*
X144206747Y-77408598D01*
X144192133Y-77388893D01*
X144179520Y-77367849D01*
X144169030Y-77345671D01*
X144160765Y-77322571D01*
X144154804Y-77298773D01*
X144151204Y-77274504D01*
X144150000Y-77250000D01*
X144150000Y-75750000D01*
X144151204Y-75725496D01*
X144154804Y-75701227D01*
X144160765Y-75677429D01*
X144169030Y-75654329D01*
X144179520Y-75632151D01*
X144192133Y-75611107D01*
X144206747Y-75591402D01*
X144223223Y-75573223D01*
X144241402Y-75556747D01*
X144261107Y-75542133D01*
X144282151Y-75529520D01*
X144304329Y-75519030D01*
X144327429Y-75510765D01*
X144351227Y-75504804D01*
X144375496Y-75501204D01*
X144400000Y-75500000D01*
X145600000Y-75500000D01*
X145624504Y-75501204D01*
G37*
G04 #@! TD*
G04 #@! TO.C,J8*
G36*
X145624504Y-83501204D02*
G01*
X145648773Y-83504804D01*
X145672571Y-83510765D01*
X145695671Y-83519030D01*
X145717849Y-83529520D01*
X145738893Y-83542133D01*
X145758598Y-83556747D01*
X145776777Y-83573223D01*
X145793253Y-83591402D01*
X145807867Y-83611107D01*
X145820480Y-83632151D01*
X145830970Y-83654329D01*
X145839235Y-83677429D01*
X145845196Y-83701227D01*
X145848796Y-83725496D01*
X145850000Y-83750000D01*
X145850000Y-85250000D01*
X145848796Y-85274504D01*
X145845196Y-85298773D01*
X145839235Y-85322571D01*
X145830970Y-85345671D01*
X145820480Y-85367849D01*
X145807867Y-85388893D01*
X145793253Y-85408598D01*
X145776777Y-85426777D01*
X145758598Y-85443253D01*
X145738893Y-85457867D01*
X145717849Y-85470480D01*
X145695671Y-85480970D01*
X145672571Y-85489235D01*
X145648773Y-85495196D01*
X145624504Y-85498796D01*
X145600000Y-85500000D01*
X144400000Y-85500000D01*
X144375496Y-85498796D01*
X144351227Y-85495196D01*
X144327429Y-85489235D01*
X144304329Y-85480970D01*
X144282151Y-85470480D01*
X144261107Y-85457867D01*
X144241402Y-85443253D01*
X144223223Y-85426777D01*
X144206747Y-85408598D01*
X144192133Y-85388893D01*
X144179520Y-85367849D01*
X144169030Y-85345671D01*
X144160765Y-85322571D01*
X144154804Y-85298773D01*
X144151204Y-85274504D01*
X144150000Y-85250000D01*
X144150000Y-83750000D01*
X144151204Y-83725496D01*
X144154804Y-83701227D01*
X144160765Y-83677429D01*
X144169030Y-83654329D01*
X144179520Y-83632151D01*
X144192133Y-83611107D01*
X144206747Y-83591402D01*
X144223223Y-83573223D01*
X144241402Y-83556747D01*
X144261107Y-83542133D01*
X144282151Y-83529520D01*
X144304329Y-83519030D01*
X144327429Y-83510765D01*
X144351227Y-83504804D01*
X144375496Y-83501204D01*
X144400000Y-83500000D01*
X145600000Y-83500000D01*
X145624504Y-83501204D01*
G37*
D22*
X142500000Y-84500000D03*
G04 #@! TD*
D23*
G04 #@! TO.C,J14*
X143762500Y-93200000D03*
X143762500Y-98200000D03*
D24*
X141062500Y-92200000D03*
X141062500Y-99200000D03*
G04 #@! TD*
M02*
