G04 #@! TF.GenerationSoftware,KiCad,Pcbnew,5.1.5+dfsg1-2build2*
G04 #@! TF.CreationDate,2021-09-26T16:39:44+00:00*
G04 #@! TF.ProjectId,NeptuneToolboard,54726953-7465-4705-946f-6f6c626f6172,rev?*
G04 #@! TF.SameCoordinates,Original*
G04 #@! TF.FileFunction,Legend,Bot*
G04 #@! TF.FilePolarity,Positive*
%FSLAX46Y46*%
G04 Gerber Fmt 4.6, Leading zero omitted, Abs format (unit mm)*
G04 Created by KiCad (PCBNEW 5.1.5+dfsg1-2build2) date 2021-09-26 16:39:44*
%MOMM*%
%LPD*%
G04 APERTURE LIST*
%ADD10C,0.150000*%
%ADD11C,0.100000*%
G04 #@! TA.AperFunction,Profile*
%ADD12C,0.050000*%
G04 #@! TD*
%ADD13C,0.120000*%
G04 APERTURE END LIST*
D10*
X197976190Y-69952380D02*
X197976190Y-68952380D01*
X197595238Y-68952380D02*
X196976190Y-68952380D01*
X197309523Y-69333333D01*
X197166666Y-69333333D01*
X197071428Y-69380952D01*
X197023809Y-69428571D01*
X196976190Y-69523809D01*
X196976190Y-69761904D01*
X197023809Y-69857142D01*
X197071428Y-69904761D01*
X197166666Y-69952380D01*
X197452380Y-69952380D01*
X197547619Y-69904761D01*
X197595238Y-69857142D01*
X197976190Y-62852380D02*
X197976190Y-61852380D01*
X197547619Y-61947619D02*
X197500000Y-61900000D01*
X197404761Y-61852380D01*
X197166666Y-61852380D01*
X197071428Y-61900000D01*
X197023809Y-61947619D01*
X196976190Y-62042857D01*
X196976190Y-62138095D01*
X197023809Y-62280952D01*
X197595238Y-62852380D01*
X196976190Y-62852380D01*
X197976190Y-55952380D02*
X197976190Y-54952380D01*
X196976190Y-55952380D02*
X197547619Y-55952380D01*
X197261904Y-55952380D02*
X197261904Y-54952380D01*
X197357142Y-55095238D01*
X197452380Y-55190476D01*
X197547619Y-55238095D01*
X207680952Y-94071428D02*
X206919047Y-94071428D01*
X207680952Y-97071428D02*
X206919047Y-97071428D01*
X207300000Y-97452380D02*
X207300000Y-96690476D01*
X142680952Y-123071428D02*
X141919047Y-123071428D01*
X142680952Y-126071428D02*
X141919047Y-126071428D01*
X142300000Y-126452380D02*
X142300000Y-125690476D01*
D11*
X185035000Y-59694000D02*
X184235000Y-59694000D01*
X184577857Y-60342857D02*
X184463571Y-60380952D01*
X184425476Y-60419047D01*
X184387380Y-60495238D01*
X184387380Y-60609523D01*
X184425476Y-60685714D01*
X184463571Y-60723809D01*
X184539761Y-60761904D01*
X184844523Y-60761904D01*
X184844523Y-59961904D01*
X184577857Y-59961904D01*
X184501666Y-60000000D01*
X184463571Y-60038095D01*
X184425476Y-60114285D01*
X184425476Y-60190476D01*
X184463571Y-60266666D01*
X184501666Y-60304761D01*
X184577857Y-60342857D01*
X184844523Y-60342857D01*
X184677857Y-67742857D02*
X184563571Y-67780952D01*
X184525476Y-67819047D01*
X184487380Y-67895238D01*
X184487380Y-68009523D01*
X184525476Y-68085714D01*
X184563571Y-68123809D01*
X184639761Y-68161904D01*
X184944523Y-68161904D01*
X184944523Y-67361904D01*
X184677857Y-67361904D01*
X184601666Y-67400000D01*
X184563571Y-67438095D01*
X184525476Y-67514285D01*
X184525476Y-67590476D01*
X184563571Y-67666666D01*
X184601666Y-67704761D01*
X184677857Y-67742857D01*
X184944523Y-67742857D01*
X184882619Y-65433333D02*
X184501666Y-65433333D01*
X184958809Y-65661904D02*
X184692142Y-64861904D01*
X184425476Y-65661904D01*
X185035000Y-62194000D02*
X184349285Y-62194000D01*
X184882619Y-63033333D02*
X184501666Y-63033333D01*
X184958809Y-63261904D02*
X184692142Y-62461904D01*
X184425476Y-63261904D01*
X169335000Y-62194000D02*
X168649285Y-62194000D01*
X169182619Y-63033333D02*
X168801666Y-63033333D01*
X169258809Y-63261904D02*
X168992142Y-62461904D01*
X168725476Y-63261904D01*
X169335000Y-59694000D02*
X168535000Y-59694000D01*
X168877857Y-60342857D02*
X168763571Y-60380952D01*
X168725476Y-60419047D01*
X168687380Y-60495238D01*
X168687380Y-60609523D01*
X168725476Y-60685714D01*
X168763571Y-60723809D01*
X168839761Y-60761904D01*
X169144523Y-60761904D01*
X169144523Y-59961904D01*
X168877857Y-59961904D01*
X168801666Y-60000000D01*
X168763571Y-60038095D01*
X168725476Y-60114285D01*
X168725476Y-60190476D01*
X168763571Y-60266666D01*
X168801666Y-60304761D01*
X168877857Y-60342857D01*
X169144523Y-60342857D01*
X168977857Y-67742857D02*
X168863571Y-67780952D01*
X168825476Y-67819047D01*
X168787380Y-67895238D01*
X168787380Y-68009523D01*
X168825476Y-68085714D01*
X168863571Y-68123809D01*
X168939761Y-68161904D01*
X169244523Y-68161904D01*
X169244523Y-67361904D01*
X168977857Y-67361904D01*
X168901666Y-67400000D01*
X168863571Y-67438095D01*
X168825476Y-67514285D01*
X168825476Y-67590476D01*
X168863571Y-67666666D01*
X168901666Y-67704761D01*
X168977857Y-67742857D01*
X169244523Y-67742857D01*
X169182619Y-65433333D02*
X168801666Y-65433333D01*
X169258809Y-65661904D02*
X168992142Y-64861904D01*
X168725476Y-65661904D01*
X153177857Y-67742857D02*
X153063571Y-67780952D01*
X153025476Y-67819047D01*
X152987380Y-67895238D01*
X152987380Y-68009523D01*
X153025476Y-68085714D01*
X153063571Y-68123809D01*
X153139761Y-68161904D01*
X153444523Y-68161904D01*
X153444523Y-67361904D01*
X153177857Y-67361904D01*
X153101666Y-67400000D01*
X153063571Y-67438095D01*
X153025476Y-67514285D01*
X153025476Y-67590476D01*
X153063571Y-67666666D01*
X153101666Y-67704761D01*
X153177857Y-67742857D01*
X153444523Y-67742857D01*
X153482619Y-65433333D02*
X153101666Y-65433333D01*
X153558809Y-65661904D02*
X153292142Y-64861904D01*
X153025476Y-65661904D01*
X153635000Y-62194000D02*
X152949285Y-62194000D01*
X153482619Y-63033333D02*
X153101666Y-63033333D01*
X153558809Y-63261904D02*
X153292142Y-62461904D01*
X153025476Y-63261904D01*
X153635000Y-59694000D02*
X152835000Y-59694000D01*
X153177857Y-60342857D02*
X153063571Y-60380952D01*
X153025476Y-60419047D01*
X152987380Y-60495238D01*
X152987380Y-60609523D01*
X153025476Y-60685714D01*
X153063571Y-60723809D01*
X153139761Y-60761904D01*
X153444523Y-60761904D01*
X153444523Y-59961904D01*
X153177857Y-59961904D01*
X153101666Y-60000000D01*
X153063571Y-60038095D01*
X153025476Y-60114285D01*
X153025476Y-60190476D01*
X153063571Y-60266666D01*
X153101666Y-60304761D01*
X153177857Y-60342857D01*
X153444523Y-60342857D01*
X180042857Y-100107857D02*
X180014285Y-100022142D01*
X179985714Y-99993571D01*
X179928571Y-99965000D01*
X179842857Y-99965000D01*
X179785714Y-99993571D01*
X179757142Y-100022142D01*
X179728571Y-100079285D01*
X179728571Y-100307857D01*
X180328571Y-100307857D01*
X180328571Y-100107857D01*
X180300000Y-100050714D01*
X180271428Y-100022142D01*
X180214285Y-99993571D01*
X180157142Y-99993571D01*
X180100000Y-100022142D01*
X180071428Y-100050714D01*
X180042857Y-100107857D01*
X180042857Y-100307857D01*
X180328571Y-99593571D02*
X180328571Y-99479285D01*
X180300000Y-99422142D01*
X180242857Y-99365000D01*
X180128571Y-99336428D01*
X179928571Y-99336428D01*
X179814285Y-99365000D01*
X179757142Y-99422142D01*
X179728571Y-99479285D01*
X179728571Y-99593571D01*
X179757142Y-99650714D01*
X179814285Y-99707857D01*
X179928571Y-99736428D01*
X180128571Y-99736428D01*
X180242857Y-99707857D01*
X180300000Y-99650714D01*
X180328571Y-99593571D01*
X180328571Y-98965000D02*
X180328571Y-98850714D01*
X180300000Y-98793571D01*
X180242857Y-98736428D01*
X180128571Y-98707857D01*
X179928571Y-98707857D01*
X179814285Y-98736428D01*
X179757142Y-98793571D01*
X179728571Y-98850714D01*
X179728571Y-98965000D01*
X179757142Y-99022142D01*
X179814285Y-99079285D01*
X179928571Y-99107857D01*
X180128571Y-99107857D01*
X180242857Y-99079285D01*
X180300000Y-99022142D01*
X180328571Y-98965000D01*
X180328571Y-98536428D02*
X180328571Y-98193571D01*
X179728571Y-98365000D02*
X180328571Y-98365000D01*
X180328571Y-97879285D02*
X180328571Y-97822142D01*
X180300000Y-97765000D01*
X180271428Y-97736428D01*
X180214285Y-97707857D01*
X180100000Y-97679285D01*
X179957142Y-97679285D01*
X179842857Y-97707857D01*
X179785714Y-97736428D01*
X179757142Y-97765000D01*
X179728571Y-97822142D01*
X179728571Y-97879285D01*
X179757142Y-97936428D01*
X179785714Y-97965000D01*
X179842857Y-97993571D01*
X179957142Y-98022142D01*
X180100000Y-98022142D01*
X180214285Y-97993571D01*
X180271428Y-97965000D01*
X180300000Y-97936428D01*
X180328571Y-97879285D01*
X183162000Y-99193571D02*
X183162000Y-98593571D01*
X182328571Y-98707857D02*
X182614285Y-98907857D01*
X182328571Y-99050714D02*
X182928571Y-99050714D01*
X182928571Y-98822142D01*
X182900000Y-98765000D01*
X182871428Y-98736428D01*
X182814285Y-98707857D01*
X182728571Y-98707857D01*
X182671428Y-98736428D01*
X182642857Y-98765000D01*
X182614285Y-98822142D01*
X182614285Y-99050714D01*
X183162000Y-98593571D02*
X183162000Y-98022142D01*
X182357142Y-98479285D02*
X182328571Y-98393571D01*
X182328571Y-98250714D01*
X182357142Y-98193571D01*
X182385714Y-98165000D01*
X182442857Y-98136428D01*
X182500000Y-98136428D01*
X182557142Y-98165000D01*
X182585714Y-98193571D01*
X182614285Y-98250714D01*
X182642857Y-98365000D01*
X182671428Y-98422142D01*
X182700000Y-98450714D01*
X182757142Y-98479285D01*
X182814285Y-98479285D01*
X182871428Y-98450714D01*
X182900000Y-98422142D01*
X182928571Y-98365000D01*
X182928571Y-98222142D01*
X182900000Y-98136428D01*
X183162000Y-98022142D02*
X183162000Y-97565000D01*
X182928571Y-97965000D02*
X182928571Y-97622142D01*
X182328571Y-97793571D02*
X182928571Y-97793571D01*
X184957142Y-100222142D02*
X184928571Y-100136428D01*
X184928571Y-99993571D01*
X184957142Y-99936428D01*
X184985714Y-99907857D01*
X185042857Y-99879285D01*
X185100000Y-99879285D01*
X185157142Y-99907857D01*
X185185714Y-99936428D01*
X185214285Y-99993571D01*
X185242857Y-100107857D01*
X185271428Y-100165000D01*
X185300000Y-100193571D01*
X185357142Y-100222142D01*
X185414285Y-100222142D01*
X185471428Y-100193571D01*
X185500000Y-100165000D01*
X185528571Y-100107857D01*
X185528571Y-99965000D01*
X185500000Y-99879285D01*
X185528571Y-99679285D02*
X184928571Y-99536428D01*
X185357142Y-99422142D01*
X184928571Y-99307857D01*
X185528571Y-99165000D01*
X184928571Y-98936428D02*
X185528571Y-98936428D01*
X185528571Y-98793571D01*
X185500000Y-98707857D01*
X185442857Y-98650714D01*
X185385714Y-98622142D01*
X185271428Y-98593571D01*
X185185714Y-98593571D01*
X185071428Y-98622142D01*
X185014285Y-98650714D01*
X184957142Y-98707857D01*
X184928571Y-98793571D01*
X184928571Y-98936428D01*
X184928571Y-98336428D02*
X185528571Y-98336428D01*
X185528571Y-97936428D02*
X185528571Y-97822142D01*
X185500000Y-97765000D01*
X185442857Y-97707857D01*
X185328571Y-97679285D01*
X185128571Y-97679285D01*
X185014285Y-97707857D01*
X184957142Y-97765000D01*
X184928571Y-97822142D01*
X184928571Y-97936428D01*
X184957142Y-97993571D01*
X185014285Y-98050714D01*
X185128571Y-98079285D01*
X185328571Y-98079285D01*
X185442857Y-98050714D01*
X185500000Y-97993571D01*
X185528571Y-97936428D01*
X184757142Y-91320714D02*
X184728571Y-91235000D01*
X184728571Y-91092142D01*
X184757142Y-91035000D01*
X184785714Y-91006428D01*
X184842857Y-90977857D01*
X184900000Y-90977857D01*
X184957142Y-91006428D01*
X184985714Y-91035000D01*
X185014285Y-91092142D01*
X185042857Y-91206428D01*
X185071428Y-91263571D01*
X185100000Y-91292142D01*
X185157142Y-91320714D01*
X185214285Y-91320714D01*
X185271428Y-91292142D01*
X185300000Y-91263571D01*
X185328571Y-91206428D01*
X185328571Y-91063571D01*
X185300000Y-90977857D01*
X185328571Y-90777857D02*
X184728571Y-90635000D01*
X185157142Y-90520714D01*
X184728571Y-90406428D01*
X185328571Y-90263571D01*
X184785714Y-89692142D02*
X184757142Y-89720714D01*
X184728571Y-89806428D01*
X184728571Y-89863571D01*
X184757142Y-89949285D01*
X184814285Y-90006428D01*
X184871428Y-90035000D01*
X184985714Y-90063571D01*
X185071428Y-90063571D01*
X185185714Y-90035000D01*
X185242857Y-90006428D01*
X185300000Y-89949285D01*
X185328571Y-89863571D01*
X185328571Y-89806428D01*
X185300000Y-89720714D01*
X185271428Y-89692142D01*
X184728571Y-89149285D02*
X184728571Y-89435000D01*
X185328571Y-89435000D01*
X184728571Y-88949285D02*
X185328571Y-88949285D01*
X184728571Y-88606428D02*
X185071428Y-88863571D01*
X185328571Y-88606428D02*
X184985714Y-88949285D01*
X182900000Y-90977857D02*
X182928571Y-91035000D01*
X182928571Y-91120714D01*
X182900000Y-91206428D01*
X182842857Y-91263571D01*
X182785714Y-91292142D01*
X182671428Y-91320714D01*
X182585714Y-91320714D01*
X182471428Y-91292142D01*
X182414285Y-91263571D01*
X182357142Y-91206428D01*
X182328571Y-91120714D01*
X182328571Y-91063571D01*
X182357142Y-90977857D01*
X182385714Y-90949285D01*
X182585714Y-90949285D01*
X182585714Y-91063571D01*
X182328571Y-90692142D02*
X182928571Y-90692142D01*
X182328571Y-90349285D01*
X182928571Y-90349285D01*
X182328571Y-90063571D02*
X182928571Y-90063571D01*
X182928571Y-89920714D01*
X182900000Y-89835000D01*
X182842857Y-89777857D01*
X182785714Y-89749285D01*
X182671428Y-89720714D01*
X182585714Y-89720714D01*
X182471428Y-89749285D01*
X182414285Y-89777857D01*
X182357142Y-89835000D01*
X182328571Y-89920714D01*
X182328571Y-90063571D01*
X180328571Y-91349285D02*
X180328571Y-90977857D01*
X180100000Y-91177857D01*
X180100000Y-91092142D01*
X180071428Y-91035000D01*
X180042857Y-91006428D01*
X179985714Y-90977857D01*
X179842857Y-90977857D01*
X179785714Y-91006428D01*
X179757142Y-91035000D01*
X179728571Y-91092142D01*
X179728571Y-91263571D01*
X179757142Y-91320714D01*
X179785714Y-91349285D01*
X180328571Y-90806428D02*
X179728571Y-90606428D01*
X180328571Y-90406428D01*
X180328571Y-90263571D02*
X180328571Y-89892142D01*
X180100000Y-90092142D01*
X180100000Y-90006428D01*
X180071428Y-89949285D01*
X180042857Y-89920714D01*
X179985714Y-89892142D01*
X179842857Y-89892142D01*
X179785714Y-89920714D01*
X179757142Y-89949285D01*
X179728571Y-90006428D01*
X179728571Y-90177857D01*
X179757142Y-90235000D01*
X179785714Y-90263571D01*
X192301666Y-112323809D02*
X192201666Y-112361904D01*
X192035000Y-112361904D01*
X191968333Y-112323809D01*
X191935000Y-112285714D01*
X191901666Y-112209523D01*
X191901666Y-112133333D01*
X191935000Y-112057142D01*
X191968333Y-112019047D01*
X192035000Y-111980952D01*
X192168333Y-111942857D01*
X192235000Y-111904761D01*
X192268333Y-111866666D01*
X192301666Y-111790476D01*
X192301666Y-111714285D01*
X192268333Y-111638095D01*
X192235000Y-111600000D01*
X192168333Y-111561904D01*
X192001666Y-111561904D01*
X191901666Y-111600000D01*
X191601666Y-112361904D02*
X191601666Y-111561904D01*
X191435000Y-111561904D01*
X191335000Y-111600000D01*
X191268333Y-111676190D01*
X191235000Y-111752380D01*
X191201666Y-111904761D01*
X191201666Y-112019047D01*
X191235000Y-112171428D01*
X191268333Y-112247619D01*
X191335000Y-112323809D01*
X191435000Y-112361904D01*
X191601666Y-112361904D01*
X190901666Y-112361904D02*
X190901666Y-111561904D01*
X192282619Y-109783333D02*
X192168333Y-109816666D01*
X191977857Y-109816666D01*
X191901666Y-109783333D01*
X191863571Y-109750000D01*
X191825476Y-109683333D01*
X191825476Y-109616666D01*
X191863571Y-109550000D01*
X191901666Y-109516666D01*
X191977857Y-109483333D01*
X192130238Y-109450000D01*
X192206428Y-109416666D01*
X192244523Y-109383333D01*
X192282619Y-109316666D01*
X192282619Y-109250000D01*
X192244523Y-109183333D01*
X192206428Y-109150000D01*
X192130238Y-109116666D01*
X191939761Y-109116666D01*
X191825476Y-109150000D01*
X191482619Y-109816666D02*
X191482619Y-109116666D01*
X191292142Y-109116666D01*
X191177857Y-109150000D01*
X191101666Y-109216666D01*
X191063571Y-109283333D01*
X191025476Y-109416666D01*
X191025476Y-109516666D01*
X191063571Y-109650000D01*
X191101666Y-109716666D01*
X191177857Y-109783333D01*
X191292142Y-109816666D01*
X191482619Y-109816666D01*
X190530238Y-109116666D02*
X190377857Y-109116666D01*
X190301666Y-109150000D01*
X190225476Y-109216666D01*
X190187380Y-109350000D01*
X190187380Y-109583333D01*
X190225476Y-109716666D01*
X190301666Y-109783333D01*
X190377857Y-109816666D01*
X190530238Y-109816666D01*
X190606428Y-109783333D01*
X190682619Y-109716666D01*
X190720714Y-109583333D01*
X190720714Y-109350000D01*
X190682619Y-109216666D01*
X190606428Y-109150000D01*
X190530238Y-109116666D01*
X192301666Y-107323809D02*
X192201666Y-107361904D01*
X192035000Y-107361904D01*
X191968333Y-107323809D01*
X191935000Y-107285714D01*
X191901666Y-107209523D01*
X191901666Y-107133333D01*
X191935000Y-107057142D01*
X191968333Y-107019047D01*
X192035000Y-106980952D01*
X192168333Y-106942857D01*
X192235000Y-106904761D01*
X192268333Y-106866666D01*
X192301666Y-106790476D01*
X192301666Y-106714285D01*
X192268333Y-106638095D01*
X192235000Y-106600000D01*
X192168333Y-106561904D01*
X192001666Y-106561904D01*
X191901666Y-106600000D01*
X191201666Y-107285714D02*
X191235000Y-107323809D01*
X191335000Y-107361904D01*
X191401666Y-107361904D01*
X191501666Y-107323809D01*
X191568333Y-107247619D01*
X191601666Y-107171428D01*
X191635000Y-107019047D01*
X191635000Y-106904761D01*
X191601666Y-106752380D01*
X191568333Y-106676190D01*
X191501666Y-106600000D01*
X191401666Y-106561904D01*
X191335000Y-106561904D01*
X191235000Y-106600000D01*
X191201666Y-106638095D01*
X190901666Y-107361904D02*
X190901666Y-106561904D01*
X190501666Y-107361904D02*
X190801666Y-106904761D01*
X190501666Y-106561904D02*
X190901666Y-107019047D01*
X194477857Y-111600000D02*
X194535000Y-111561904D01*
X194620714Y-111561904D01*
X194706428Y-111600000D01*
X194763571Y-111676190D01*
X194792142Y-111752380D01*
X194820714Y-111904761D01*
X194820714Y-112019047D01*
X194792142Y-112171428D01*
X194763571Y-112247619D01*
X194706428Y-112323809D01*
X194620714Y-112361904D01*
X194563571Y-112361904D01*
X194477857Y-112323809D01*
X194449285Y-112285714D01*
X194449285Y-112019047D01*
X194563571Y-112019047D01*
X194192142Y-112361904D02*
X194192142Y-111561904D01*
X193849285Y-112361904D01*
X193849285Y-111561904D01*
X193563571Y-112361904D02*
X193563571Y-111561904D01*
X193420714Y-111561904D01*
X193335000Y-111600000D01*
X193277857Y-111676190D01*
X193249285Y-111752380D01*
X193220714Y-111904761D01*
X193220714Y-112019047D01*
X193249285Y-112171428D01*
X193277857Y-112247619D01*
X193335000Y-112323809D01*
X193420714Y-112361904D01*
X193563571Y-112361904D01*
X194768333Y-109861904D02*
X194768333Y-109061904D01*
X194435000Y-109861904D02*
X194435000Y-109061904D01*
X194035000Y-109861904D01*
X194035000Y-109061904D01*
X193801666Y-109061904D02*
X193401666Y-109061904D01*
X193601666Y-109861904D02*
X193601666Y-109061904D01*
X194835000Y-106561904D02*
X194401666Y-106561904D01*
X194635000Y-106866666D01*
X194535000Y-106866666D01*
X194468333Y-106904761D01*
X194435000Y-106942857D01*
X194401666Y-107019047D01*
X194401666Y-107209523D01*
X194435000Y-107285714D01*
X194468333Y-107323809D01*
X194535000Y-107361904D01*
X194735000Y-107361904D01*
X194801666Y-107323809D01*
X194835000Y-107285714D01*
X194201666Y-106561904D02*
X193968333Y-107361904D01*
X193735000Y-106561904D01*
X193568333Y-106561904D02*
X193135000Y-106561904D01*
X193368333Y-106866666D01*
X193268333Y-106866666D01*
X193201666Y-106904761D01*
X193168333Y-106942857D01*
X193135000Y-107019047D01*
X193135000Y-107209523D01*
X193168333Y-107285714D01*
X193201666Y-107323809D01*
X193268333Y-107361904D01*
X193468333Y-107361904D01*
X193535000Y-107323809D01*
X193568333Y-107285714D01*
X192435000Y-103794000D02*
X191735000Y-103794000D01*
X191868333Y-104785714D02*
X191901666Y-104823809D01*
X192001666Y-104861904D01*
X192068333Y-104861904D01*
X192168333Y-104823809D01*
X192235000Y-104747619D01*
X192268333Y-104671428D01*
X192301666Y-104519047D01*
X192301666Y-104404761D01*
X192268333Y-104252380D01*
X192235000Y-104176190D01*
X192168333Y-104100000D01*
X192068333Y-104061904D01*
X192001666Y-104061904D01*
X191901666Y-104100000D01*
X191868333Y-104138095D01*
X191735000Y-103794000D02*
X191068333Y-103794000D01*
X191601666Y-104823809D02*
X191501666Y-104861904D01*
X191335000Y-104861904D01*
X191268333Y-104823809D01*
X191235000Y-104785714D01*
X191201666Y-104709523D01*
X191201666Y-104633333D01*
X191235000Y-104557142D01*
X191268333Y-104519047D01*
X191335000Y-104480952D01*
X191468333Y-104442857D01*
X191535000Y-104404761D01*
X191568333Y-104366666D01*
X191601666Y-104290476D01*
X191601666Y-104214285D01*
X191568333Y-104138095D01*
X191535000Y-104100000D01*
X191468333Y-104061904D01*
X191301666Y-104061904D01*
X191201666Y-104100000D01*
X194435000Y-104061904D02*
X194768333Y-104061904D01*
X194801666Y-104442857D01*
X194768333Y-104404761D01*
X194701666Y-104366666D01*
X194535000Y-104366666D01*
X194468333Y-104404761D01*
X194435000Y-104442857D01*
X194401666Y-104519047D01*
X194401666Y-104709523D01*
X194435000Y-104785714D01*
X194468333Y-104823809D01*
X194535000Y-104861904D01*
X194701666Y-104861904D01*
X194768333Y-104823809D01*
X194801666Y-104785714D01*
X194201666Y-104061904D02*
X193968333Y-104861904D01*
X193735000Y-104061904D01*
X199400000Y-119901666D02*
X199438095Y-119968333D01*
X199438095Y-120068333D01*
X199400000Y-120168333D01*
X199323809Y-120235000D01*
X199247619Y-120268333D01*
X199095238Y-120301666D01*
X198980952Y-120301666D01*
X198828571Y-120268333D01*
X198752380Y-120235000D01*
X198676190Y-120168333D01*
X198638095Y-120068333D01*
X198638095Y-120001666D01*
X198676190Y-119901666D01*
X198714285Y-119868333D01*
X198980952Y-119868333D01*
X198980952Y-120001666D01*
X198638095Y-119568333D02*
X199438095Y-119568333D01*
X198638095Y-119168333D01*
X199438095Y-119168333D01*
X198638095Y-118835000D02*
X199438095Y-118835000D01*
X199438095Y-118668333D01*
X199400000Y-118568333D01*
X199323809Y-118501666D01*
X199247619Y-118468333D01*
X199095238Y-118435000D01*
X198980952Y-118435000D01*
X198828571Y-118468333D01*
X198752380Y-118501666D01*
X198676190Y-118568333D01*
X198638095Y-118668333D01*
X198638095Y-118835000D01*
X201438095Y-120035000D02*
X201438095Y-120368333D01*
X201057142Y-120401666D01*
X201095238Y-120368333D01*
X201133333Y-120301666D01*
X201133333Y-120135000D01*
X201095238Y-120068333D01*
X201057142Y-120035000D01*
X200980952Y-120001666D01*
X200790476Y-120001666D01*
X200714285Y-120035000D01*
X200676190Y-120068333D01*
X200638095Y-120135000D01*
X200638095Y-120301666D01*
X200676190Y-120368333D01*
X200714285Y-120401666D01*
X201438095Y-119801666D02*
X200638095Y-119568333D01*
X201438095Y-119335000D01*
X202676190Y-120401666D02*
X202638095Y-120301666D01*
X202638095Y-120135000D01*
X202676190Y-120068333D01*
X202714285Y-120035000D01*
X202790476Y-120001666D01*
X202866666Y-120001666D01*
X202942857Y-120035000D01*
X202980952Y-120068333D01*
X203019047Y-120135000D01*
X203057142Y-120268333D01*
X203095238Y-120335000D01*
X203133333Y-120368333D01*
X203209523Y-120401666D01*
X203285714Y-120401666D01*
X203361904Y-120368333D01*
X203400000Y-120335000D01*
X203438095Y-120268333D01*
X203438095Y-120101666D01*
X203400000Y-120001666D01*
X203057142Y-119701666D02*
X203057142Y-119468333D01*
X202638095Y-119368333D02*
X202638095Y-119701666D01*
X203438095Y-119701666D01*
X203438095Y-119368333D01*
X202638095Y-118668333D02*
X203019047Y-118901666D01*
X202638095Y-119068333D02*
X203438095Y-119068333D01*
X203438095Y-118801666D01*
X203400000Y-118735000D01*
X203361904Y-118701666D01*
X203285714Y-118668333D01*
X203171428Y-118668333D01*
X203095238Y-118701666D01*
X203057142Y-118735000D01*
X203019047Y-118801666D01*
X203019047Y-119068333D01*
X203438095Y-118468333D02*
X202638095Y-118235000D01*
X203438095Y-118001666D01*
X203438095Y-117635000D02*
X203438095Y-117501666D01*
X203400000Y-117435000D01*
X203323809Y-117368333D01*
X203171428Y-117335000D01*
X202904761Y-117335000D01*
X202752380Y-117368333D01*
X202676190Y-117435000D01*
X202638095Y-117501666D01*
X202638095Y-117635000D01*
X202676190Y-117701666D01*
X202752380Y-117768333D01*
X202904761Y-117801666D01*
X203171428Y-117801666D01*
X203323809Y-117768333D01*
X203400000Y-117701666D01*
X203438095Y-117635000D01*
X205400000Y-120001666D02*
X205438095Y-120068333D01*
X205438095Y-120168333D01*
X205400000Y-120268333D01*
X205323809Y-120335000D01*
X205247619Y-120368333D01*
X205095238Y-120401666D01*
X204980952Y-120401666D01*
X204828571Y-120368333D01*
X204752380Y-120335000D01*
X204676190Y-120268333D01*
X204638095Y-120168333D01*
X204638095Y-120101666D01*
X204676190Y-120001666D01*
X204714285Y-119968333D01*
X204980952Y-119968333D01*
X204980952Y-120101666D01*
X204638095Y-119668333D02*
X205438095Y-119668333D01*
X204638095Y-119268333D01*
X205438095Y-119268333D01*
X204638095Y-118935000D02*
X205438095Y-118935000D01*
X205438095Y-118768333D01*
X205400000Y-118668333D01*
X205323809Y-118601666D01*
X205247619Y-118568333D01*
X205095238Y-118535000D01*
X204980952Y-118535000D01*
X204828571Y-118568333D01*
X204752380Y-118601666D01*
X204676190Y-118668333D01*
X204638095Y-118768333D01*
X204638095Y-118935000D01*
X207438095Y-120335000D02*
X207438095Y-119868333D01*
X206638095Y-120335000D01*
X206638095Y-119868333D01*
X206638095Y-119601666D02*
X207438095Y-119601666D01*
X207438095Y-119335000D01*
X207400000Y-119268333D01*
X207361904Y-119235000D01*
X207285714Y-119201666D01*
X207171428Y-119201666D01*
X207095238Y-119235000D01*
X207057142Y-119268333D01*
X207019047Y-119335000D01*
X207019047Y-119601666D01*
X206638095Y-118501666D02*
X207019047Y-118735000D01*
X206638095Y-118901666D02*
X207438095Y-118901666D01*
X207438095Y-118635000D01*
X207400000Y-118568333D01*
X207361904Y-118535000D01*
X207285714Y-118501666D01*
X207171428Y-118501666D01*
X207095238Y-118535000D01*
X207057142Y-118568333D01*
X207019047Y-118635000D01*
X207019047Y-118901666D01*
X207438095Y-118068333D02*
X207438095Y-117935000D01*
X207400000Y-117868333D01*
X207323809Y-117801666D01*
X207171428Y-117768333D01*
X206904761Y-117768333D01*
X206752380Y-117801666D01*
X206676190Y-117868333D01*
X206638095Y-117935000D01*
X206638095Y-118068333D01*
X206676190Y-118135000D01*
X206752380Y-118201666D01*
X206904761Y-118235000D01*
X207171428Y-118235000D01*
X207323809Y-118201666D01*
X207400000Y-118135000D01*
X207438095Y-118068333D01*
X207057142Y-117235000D02*
X207019047Y-117135000D01*
X206980952Y-117101666D01*
X206904761Y-117068333D01*
X206790476Y-117068333D01*
X206714285Y-117101666D01*
X206676190Y-117135000D01*
X206638095Y-117201666D01*
X206638095Y-117468333D01*
X207438095Y-117468333D01*
X207438095Y-117235000D01*
X207400000Y-117168333D01*
X207361904Y-117135000D01*
X207285714Y-117101666D01*
X207209523Y-117101666D01*
X207133333Y-117135000D01*
X207095238Y-117168333D01*
X207057142Y-117235000D01*
X207057142Y-117468333D01*
X207057142Y-116768333D02*
X207057142Y-116535000D01*
X206638095Y-116435000D02*
X206638095Y-116768333D01*
X207438095Y-116768333D01*
X207438095Y-116435000D01*
D10*
X206700000Y-52783333D02*
X206600000Y-52816666D01*
X206433333Y-52816666D01*
X206366666Y-52783333D01*
X206333333Y-52750000D01*
X206300000Y-52683333D01*
X206300000Y-52616666D01*
X206333333Y-52550000D01*
X206366666Y-52516666D01*
X206433333Y-52483333D01*
X206566666Y-52450000D01*
X206633333Y-52416666D01*
X206666666Y-52383333D01*
X206700000Y-52316666D01*
X206700000Y-52250000D01*
X206666666Y-52183333D01*
X206633333Y-52150000D01*
X206566666Y-52116666D01*
X206400000Y-52116666D01*
X206300000Y-52150000D01*
X204380952Y-52571428D02*
X203619047Y-52571428D01*
X201880952Y-52571428D02*
X201119047Y-52571428D01*
X201500000Y-52952380D02*
X201500000Y-52190476D01*
X206700000Y-59783333D02*
X206600000Y-59816666D01*
X206433333Y-59816666D01*
X206366666Y-59783333D01*
X206333333Y-59750000D01*
X206300000Y-59683333D01*
X206300000Y-59616666D01*
X206333333Y-59550000D01*
X206366666Y-59516666D01*
X206433333Y-59483333D01*
X206566666Y-59450000D01*
X206633333Y-59416666D01*
X206666666Y-59383333D01*
X206700000Y-59316666D01*
X206700000Y-59250000D01*
X206666666Y-59183333D01*
X206633333Y-59150000D01*
X206566666Y-59116666D01*
X206400000Y-59116666D01*
X206300000Y-59150000D01*
X204380952Y-59571428D02*
X203619047Y-59571428D01*
X201880952Y-59571428D02*
X201119047Y-59571428D01*
X201500000Y-59952380D02*
X201500000Y-59190476D01*
X206700000Y-66783333D02*
X206600000Y-66816666D01*
X206433333Y-66816666D01*
X206366666Y-66783333D01*
X206333333Y-66750000D01*
X206300000Y-66683333D01*
X206300000Y-66616666D01*
X206333333Y-66550000D01*
X206366666Y-66516666D01*
X206433333Y-66483333D01*
X206566666Y-66450000D01*
X206633333Y-66416666D01*
X206666666Y-66383333D01*
X206700000Y-66316666D01*
X206700000Y-66250000D01*
X206666666Y-66183333D01*
X206633333Y-66150000D01*
X206566666Y-66116666D01*
X206400000Y-66116666D01*
X206300000Y-66150000D01*
X204380952Y-66571428D02*
X203619047Y-66571428D01*
X201880952Y-66571428D02*
X201119047Y-66571428D01*
X201500000Y-66952380D02*
X201500000Y-66190476D01*
X198680952Y-91871428D02*
X197919047Y-91871428D01*
X201680952Y-91871428D02*
X200919047Y-91871428D01*
X201300000Y-92252380D02*
X201300000Y-91490476D01*
X145380952Y-73071428D02*
X144619047Y-73071428D01*
X145380952Y-81071428D02*
X144619047Y-81071428D01*
X142880952Y-81071428D02*
X142119047Y-81071428D01*
X142500000Y-81452380D02*
X142500000Y-80690476D01*
X142880952Y-73071428D02*
X142119047Y-73071428D01*
X142500000Y-73452380D02*
X142500000Y-72690476D01*
D11*
X153879285Y-114385714D02*
X153917380Y-114423809D01*
X154031666Y-114461904D01*
X154107857Y-114461904D01*
X154222142Y-114423809D01*
X154298333Y-114347619D01*
X154336428Y-114271428D01*
X154374523Y-114119047D01*
X154374523Y-114004761D01*
X154336428Y-113852380D01*
X154298333Y-113776190D01*
X154222142Y-113700000D01*
X154107857Y-113661904D01*
X154031666Y-113661904D01*
X153917380Y-113700000D01*
X153879285Y-113738095D01*
X153574523Y-114233333D02*
X153193571Y-114233333D01*
X153650714Y-114461904D02*
X153384047Y-113661904D01*
X153117380Y-114461904D01*
X152850714Y-114461904D02*
X152850714Y-113661904D01*
X152393571Y-114461904D01*
X152393571Y-113661904D01*
X152012619Y-114461904D02*
X152012619Y-113661904D01*
X152012619Y-114042857D02*
X151555476Y-114042857D01*
X151555476Y-114461904D02*
X151555476Y-113661904D01*
X153688809Y-111885714D02*
X153726904Y-111923809D01*
X153841190Y-111961904D01*
X153917380Y-111961904D01*
X154031666Y-111923809D01*
X154107857Y-111847619D01*
X154145952Y-111771428D01*
X154184047Y-111619047D01*
X154184047Y-111504761D01*
X154145952Y-111352380D01*
X154107857Y-111276190D01*
X154031666Y-111200000D01*
X153917380Y-111161904D01*
X153841190Y-111161904D01*
X153726904Y-111200000D01*
X153688809Y-111238095D01*
X153384047Y-111733333D02*
X153003095Y-111733333D01*
X153460238Y-111961904D02*
X153193571Y-111161904D01*
X152926904Y-111961904D01*
X152660238Y-111961904D02*
X152660238Y-111161904D01*
X152203095Y-111961904D01*
X152203095Y-111161904D01*
X151441190Y-111961904D02*
X151822142Y-111961904D01*
X151822142Y-111161904D01*
D10*
X144380952Y-126071428D02*
X143619047Y-126071428D01*
X144380952Y-123071428D02*
X143619047Y-123071428D01*
X144000000Y-123452380D02*
X144000000Y-122690476D01*
X150509523Y-119152380D02*
X150509523Y-118152380D01*
X150128571Y-118152380D01*
X150033333Y-118200000D01*
X149985714Y-118247619D01*
X149938095Y-118342857D01*
X149938095Y-118485714D01*
X149985714Y-118580952D01*
X150033333Y-118628571D01*
X150128571Y-118676190D01*
X150509523Y-118676190D01*
X149319047Y-118152380D02*
X149128571Y-118152380D01*
X149033333Y-118200000D01*
X148938095Y-118295238D01*
X148890476Y-118485714D01*
X148890476Y-118819047D01*
X148938095Y-119009523D01*
X149033333Y-119104761D01*
X149128571Y-119152380D01*
X149319047Y-119152380D01*
X149414285Y-119104761D01*
X149509523Y-119009523D01*
X149557142Y-118819047D01*
X149557142Y-118485714D01*
X149509523Y-118295238D01*
X149414285Y-118200000D01*
X149319047Y-118152380D01*
X148557142Y-118152380D02*
X148319047Y-119152380D01*
X148128571Y-118438095D01*
X147938095Y-119152380D01*
X147700000Y-118152380D01*
X147319047Y-118628571D02*
X146985714Y-118628571D01*
X146842857Y-119152380D02*
X147319047Y-119152380D01*
X147319047Y-118152380D01*
X146842857Y-118152380D01*
X145842857Y-119152380D02*
X146176190Y-118676190D01*
X146414285Y-119152380D02*
X146414285Y-118152380D01*
X146033333Y-118152380D01*
X145938095Y-118200000D01*
X145890476Y-118247619D01*
X145842857Y-118342857D01*
X145842857Y-118485714D01*
X145890476Y-118580952D01*
X145938095Y-118628571D01*
X146033333Y-118676190D01*
X146414285Y-118676190D01*
X142942857Y-108357142D02*
X142990476Y-108404761D01*
X143133333Y-108452380D01*
X143228571Y-108452380D01*
X143371428Y-108404761D01*
X143466666Y-108309523D01*
X143514285Y-108214285D01*
X143561904Y-108023809D01*
X143561904Y-107880952D01*
X143514285Y-107690476D01*
X143466666Y-107595238D01*
X143371428Y-107500000D01*
X143228571Y-107452380D01*
X143133333Y-107452380D01*
X142990476Y-107500000D01*
X142942857Y-107547619D01*
X142561904Y-108166666D02*
X142085714Y-108166666D01*
X142657142Y-108452380D02*
X142323809Y-107452380D01*
X141990476Y-108452380D01*
X141657142Y-108452380D02*
X141657142Y-107452380D01*
X141085714Y-108452380D01*
X141085714Y-107452380D01*
X190261904Y-72404761D02*
X190119047Y-72452380D01*
X189880952Y-72452380D01*
X189785714Y-72404761D01*
X189738095Y-72357142D01*
X189690476Y-72261904D01*
X189690476Y-72166666D01*
X189738095Y-72071428D01*
X189785714Y-72023809D01*
X189880952Y-71976190D01*
X190071428Y-71928571D01*
X190166666Y-71880952D01*
X190214285Y-71833333D01*
X190261904Y-71738095D01*
X190261904Y-71642857D01*
X190214285Y-71547619D01*
X190166666Y-71500000D01*
X190071428Y-71452380D01*
X189833333Y-71452380D01*
X189690476Y-71500000D01*
X189357142Y-71452380D02*
X188738095Y-71452380D01*
X189071428Y-71833333D01*
X188928571Y-71833333D01*
X188833333Y-71880952D01*
X188785714Y-71928571D01*
X188738095Y-72023809D01*
X188738095Y-72261904D01*
X188785714Y-72357142D01*
X188833333Y-72404761D01*
X188928571Y-72452380D01*
X189214285Y-72452380D01*
X189309523Y-72404761D01*
X189357142Y-72357142D01*
X174761904Y-72404761D02*
X174619047Y-72452380D01*
X174380952Y-72452380D01*
X174285714Y-72404761D01*
X174238095Y-72357142D01*
X174190476Y-72261904D01*
X174190476Y-72166666D01*
X174238095Y-72071428D01*
X174285714Y-72023809D01*
X174380952Y-71976190D01*
X174571428Y-71928571D01*
X174666666Y-71880952D01*
X174714285Y-71833333D01*
X174761904Y-71738095D01*
X174761904Y-71642857D01*
X174714285Y-71547619D01*
X174666666Y-71500000D01*
X174571428Y-71452380D01*
X174333333Y-71452380D01*
X174190476Y-71500000D01*
X173809523Y-71547619D02*
X173761904Y-71500000D01*
X173666666Y-71452380D01*
X173428571Y-71452380D01*
X173333333Y-71500000D01*
X173285714Y-71547619D01*
X173238095Y-71642857D01*
X173238095Y-71738095D01*
X173285714Y-71880952D01*
X173857142Y-72452380D01*
X173238095Y-72452380D01*
X159261904Y-72404761D02*
X159119047Y-72452380D01*
X158880952Y-72452380D01*
X158785714Y-72404761D01*
X158738095Y-72357142D01*
X158690476Y-72261904D01*
X158690476Y-72166666D01*
X158738095Y-72071428D01*
X158785714Y-72023809D01*
X158880952Y-71976190D01*
X159071428Y-71928571D01*
X159166666Y-71880952D01*
X159214285Y-71833333D01*
X159261904Y-71738095D01*
X159261904Y-71642857D01*
X159214285Y-71547619D01*
X159166666Y-71500000D01*
X159071428Y-71452380D01*
X158833333Y-71452380D01*
X158690476Y-71500000D01*
X157738095Y-72452380D02*
X158309523Y-72452380D01*
X158023809Y-72452380D02*
X158023809Y-71452380D01*
X158119047Y-71595238D01*
X158214285Y-71690476D01*
X158309523Y-71738095D01*
X205880952Y-126928571D02*
X205738095Y-126976190D01*
X205690476Y-127023809D01*
X205642857Y-127119047D01*
X205642857Y-127261904D01*
X205690476Y-127357142D01*
X205738095Y-127404761D01*
X205833333Y-127452380D01*
X206214285Y-127452380D01*
X206214285Y-126452380D01*
X205880952Y-126452380D01*
X205785714Y-126500000D01*
X205738095Y-126547619D01*
X205690476Y-126642857D01*
X205690476Y-126738095D01*
X205738095Y-126833333D01*
X205785714Y-126880952D01*
X205880952Y-126928571D01*
X206214285Y-126928571D01*
X204738095Y-127452380D02*
X205214285Y-127452380D01*
X205214285Y-126452380D01*
X203785714Y-126452380D02*
X203214285Y-126452380D01*
X203500000Y-127452380D02*
X203500000Y-126452380D01*
X202738095Y-127452380D02*
X202833333Y-127404761D01*
X202880952Y-127357142D01*
X202928571Y-127261904D01*
X202928571Y-126976190D01*
X202880952Y-126880952D01*
X202833333Y-126833333D01*
X202738095Y-126785714D01*
X202595238Y-126785714D01*
X202500000Y-126833333D01*
X202452380Y-126880952D01*
X202404761Y-126976190D01*
X202404761Y-127261904D01*
X202452380Y-127357142D01*
X202500000Y-127404761D01*
X202595238Y-127452380D01*
X202738095Y-127452380D01*
X201547619Y-126785714D02*
X201547619Y-127452380D01*
X201976190Y-126785714D02*
X201976190Y-127309523D01*
X201928571Y-127404761D01*
X201833333Y-127452380D01*
X201690476Y-127452380D01*
X201595238Y-127404761D01*
X201547619Y-127357142D01*
X200642857Y-127404761D02*
X200738095Y-127452380D01*
X200928571Y-127452380D01*
X201023809Y-127404761D01*
X201071428Y-127357142D01*
X201119047Y-127261904D01*
X201119047Y-126976190D01*
X201071428Y-126880952D01*
X201023809Y-126833333D01*
X200928571Y-126785714D01*
X200738095Y-126785714D01*
X200642857Y-126833333D01*
X200214285Y-127452380D02*
X200214285Y-126452380D01*
X199785714Y-127452380D02*
X199785714Y-126928571D01*
X199833333Y-126833333D01*
X199928571Y-126785714D01*
X200071428Y-126785714D01*
X200166666Y-126833333D01*
X200214285Y-126880952D01*
X197276190Y-114466666D02*
X196800000Y-114466666D01*
X197371428Y-114752380D02*
X197038095Y-113752380D01*
X196704761Y-114752380D01*
X195800000Y-114657142D02*
X195847619Y-114704761D01*
X195990476Y-114752380D01*
X196085714Y-114752380D01*
X196228571Y-114704761D01*
X196323809Y-114609523D01*
X196371428Y-114514285D01*
X196419047Y-114323809D01*
X196419047Y-114180952D01*
X196371428Y-113990476D01*
X196323809Y-113895238D01*
X196228571Y-113800000D01*
X196085714Y-113752380D01*
X195990476Y-113752380D01*
X195847619Y-113800000D01*
X195800000Y-113847619D01*
X194800000Y-114657142D02*
X194847619Y-114704761D01*
X194990476Y-114752380D01*
X195085714Y-114752380D01*
X195228571Y-114704761D01*
X195323809Y-114609523D01*
X195371428Y-114514285D01*
X195419047Y-114323809D01*
X195419047Y-114180952D01*
X195371428Y-113990476D01*
X195323809Y-113895238D01*
X195228571Y-113800000D01*
X195085714Y-113752380D01*
X194990476Y-113752380D01*
X194847619Y-113800000D01*
X194800000Y-113847619D01*
X193657142Y-113704761D02*
X194514285Y-114990476D01*
X193371428Y-114704761D02*
X193228571Y-114752380D01*
X192990476Y-114752380D01*
X192895238Y-114704761D01*
X192847619Y-114657142D01*
X192800000Y-114561904D01*
X192800000Y-114466666D01*
X192847619Y-114371428D01*
X192895238Y-114323809D01*
X192990476Y-114276190D01*
X193180952Y-114228571D01*
X193276190Y-114180952D01*
X193323809Y-114133333D01*
X193371428Y-114038095D01*
X193371428Y-113942857D01*
X193323809Y-113847619D01*
X193276190Y-113800000D01*
X193180952Y-113752380D01*
X192942857Y-113752380D01*
X192800000Y-113800000D01*
X192371428Y-114752380D02*
X192371428Y-113752380D01*
X191990476Y-113752380D01*
X191895238Y-113800000D01*
X191847619Y-113847619D01*
X191800000Y-113942857D01*
X191800000Y-114085714D01*
X191847619Y-114180952D01*
X191895238Y-114228571D01*
X191990476Y-114276190D01*
X192371428Y-114276190D01*
X191371428Y-114752380D02*
X191371428Y-113752380D01*
X208673928Y-89652380D02*
X208483452Y-89652380D01*
X208388214Y-89700000D01*
X208292976Y-89795238D01*
X208245357Y-89985714D01*
X208245357Y-90319047D01*
X208292976Y-90509523D01*
X208388214Y-90604761D01*
X208483452Y-90652380D01*
X208673928Y-90652380D01*
X208769166Y-90604761D01*
X208864404Y-90509523D01*
X208912023Y-90319047D01*
X208912023Y-89985714D01*
X208864404Y-89795238D01*
X208769166Y-89700000D01*
X208673928Y-89652380D01*
X207816785Y-89652380D02*
X207816785Y-90461904D01*
X207769166Y-90557142D01*
X207721547Y-90604761D01*
X207626309Y-90652380D01*
X207435833Y-90652380D01*
X207340595Y-90604761D01*
X207292976Y-90557142D01*
X207245357Y-90461904D01*
X207245357Y-89652380D01*
X206912023Y-89652380D02*
X206340595Y-89652380D01*
X206626309Y-90652380D02*
X206626309Y-89652380D01*
X205483452Y-90652380D02*
X206054880Y-90652380D01*
X205769166Y-90652380D02*
X205769166Y-89652380D01*
X205864404Y-89795238D01*
X205959642Y-89890476D01*
X206054880Y-89938095D01*
X200807261Y-83452380D02*
X200235833Y-83452380D01*
X200521547Y-84452380D02*
X200521547Y-83452380D01*
X199902500Y-84452380D02*
X199902500Y-83452380D01*
X199902500Y-83928571D02*
X199331071Y-83928571D01*
X199331071Y-84452380D02*
X199331071Y-83452380D01*
X198664404Y-83452380D02*
X198569166Y-83452380D01*
X198473928Y-83500000D01*
X198426309Y-83547619D01*
X198378690Y-83642857D01*
X198331071Y-83833333D01*
X198331071Y-84071428D01*
X198378690Y-84261904D01*
X198426309Y-84357142D01*
X198473928Y-84404761D01*
X198569166Y-84452380D01*
X198664404Y-84452380D01*
X198759642Y-84404761D01*
X198807261Y-84357142D01*
X198854880Y-84261904D01*
X198902500Y-84071428D01*
X198902500Y-83833333D01*
X198854880Y-83642857D01*
X198807261Y-83547619D01*
X198759642Y-83500000D01*
X198664404Y-83452380D01*
X200807261Y-75952380D02*
X200235833Y-75952380D01*
X200521547Y-76952380D02*
X200521547Y-75952380D01*
X199902500Y-76952380D02*
X199902500Y-75952380D01*
X199902500Y-76428571D02*
X199331071Y-76428571D01*
X199331071Y-76952380D02*
X199331071Y-75952380D01*
X198331071Y-76952380D02*
X198902500Y-76952380D01*
X198616785Y-76952380D02*
X198616785Y-75952380D01*
X198712023Y-76095238D01*
X198807261Y-76190476D01*
X198902500Y-76238095D01*
X151478452Y-84952380D02*
X151287976Y-84952380D01*
X151192738Y-85000000D01*
X151097500Y-85095238D01*
X151049880Y-85285714D01*
X151049880Y-85619047D01*
X151097500Y-85809523D01*
X151192738Y-85904761D01*
X151287976Y-85952380D01*
X151478452Y-85952380D01*
X151573690Y-85904761D01*
X151668928Y-85809523D01*
X151716547Y-85619047D01*
X151716547Y-85285714D01*
X151668928Y-85095238D01*
X151573690Y-85000000D01*
X151478452Y-84952380D01*
X150621309Y-84952380D02*
X150621309Y-85761904D01*
X150573690Y-85857142D01*
X150526071Y-85904761D01*
X150430833Y-85952380D01*
X150240357Y-85952380D01*
X150145119Y-85904761D01*
X150097500Y-85857142D01*
X150049880Y-85761904D01*
X150049880Y-84952380D01*
X149716547Y-84952380D02*
X149145119Y-84952380D01*
X149430833Y-85952380D02*
X149430833Y-84952380D01*
X148907023Y-84952380D02*
X148287976Y-84952380D01*
X148621309Y-85333333D01*
X148478452Y-85333333D01*
X148383214Y-85380952D01*
X148335595Y-85428571D01*
X148287976Y-85523809D01*
X148287976Y-85761904D01*
X148335595Y-85857142D01*
X148383214Y-85904761D01*
X148478452Y-85952380D01*
X148764166Y-85952380D01*
X148859404Y-85904761D01*
X148907023Y-85857142D01*
X151478452Y-76452380D02*
X151287976Y-76452380D01*
X151192738Y-76500000D01*
X151097500Y-76595238D01*
X151049880Y-76785714D01*
X151049880Y-77119047D01*
X151097500Y-77309523D01*
X151192738Y-77404761D01*
X151287976Y-77452380D01*
X151478452Y-77452380D01*
X151573690Y-77404761D01*
X151668928Y-77309523D01*
X151716547Y-77119047D01*
X151716547Y-76785714D01*
X151668928Y-76595238D01*
X151573690Y-76500000D01*
X151478452Y-76452380D01*
X150621309Y-76452380D02*
X150621309Y-77261904D01*
X150573690Y-77357142D01*
X150526071Y-77404761D01*
X150430833Y-77452380D01*
X150240357Y-77452380D01*
X150145119Y-77404761D01*
X150097500Y-77357142D01*
X150049880Y-77261904D01*
X150049880Y-76452380D01*
X149716547Y-76452380D02*
X149145119Y-76452380D01*
X149430833Y-77452380D02*
X149430833Y-76452380D01*
X148859404Y-76547619D02*
X148811785Y-76500000D01*
X148716547Y-76452380D01*
X148478452Y-76452380D01*
X148383214Y-76500000D01*
X148335595Y-76547619D01*
X148287976Y-76642857D01*
X148287976Y-76738095D01*
X148335595Y-76880952D01*
X148907023Y-77452380D01*
X148287976Y-77452380D01*
D12*
X140500000Y-132000000D02*
G75*
G02X139500000Y-131000000I0J1000000D01*
G01*
X209500000Y-131000000D02*
G75*
G02X208500000Y-132000000I-1000000J0D01*
G01*
X208500000Y-52000000D02*
G75*
G02X209500000Y-53000000I0J-1000000D01*
G01*
X139500000Y-53000000D02*
G75*
G02X140500000Y-52000000I1000000J0D01*
G01*
X140500000Y-52000000D02*
X208500000Y-52000000D01*
X139500000Y-131000000D02*
X139500000Y-53000000D01*
X208500000Y-132000000D02*
X140500000Y-132000000D01*
X209500000Y-53000000D02*
X209500000Y-131000000D01*
D13*
G04 #@! TO.C,J11*
X195910000Y-95990000D02*
X195910000Y-94651767D01*
X195910000Y-90565000D02*
X195910000Y-93348233D01*
X195910000Y-100435000D02*
X195910000Y-98010000D01*
X205030000Y-90565000D02*
X195910000Y-90565000D01*
X206030000Y-91565000D02*
X205030000Y-90565000D01*
X206030000Y-99435000D02*
X206030000Y-91565000D01*
X205030000Y-100435000D02*
X206030000Y-99435000D01*
X195910000Y-100435000D02*
X205030000Y-100435000D01*
G04 #@! TO.C,J10*
X151100000Y-113800000D02*
X150500000Y-114100000D01*
X151100000Y-114400000D02*
X151100000Y-113800000D01*
X150500000Y-114100000D02*
X151100000Y-114400000D01*
X145800000Y-111350000D02*
X145800000Y-111850000D01*
X140300000Y-111350000D02*
X145800000Y-111350000D01*
X140300000Y-111850000D02*
X140300000Y-111350000D01*
X145800000Y-111850000D02*
X140300000Y-111850000D01*
X145800000Y-113850000D02*
X145800000Y-114350000D01*
X140300000Y-113850000D02*
X145800000Y-113850000D01*
X140300000Y-114350000D02*
X140300000Y-113850000D01*
X145800000Y-114350000D02*
X140300000Y-114350000D01*
X146910000Y-110460000D02*
X146910000Y-112850000D01*
X151410000Y-110460000D02*
X146910000Y-110460000D01*
X151410000Y-109040000D02*
X151410000Y-110460000D01*
X139690000Y-109040000D02*
X151410000Y-109040000D01*
X139690000Y-112850000D02*
X139690000Y-109040000D01*
X146910000Y-115240000D02*
X146910000Y-112850000D01*
X151410000Y-115240000D02*
X146910000Y-115240000D01*
X151410000Y-116660000D02*
X151410000Y-115240000D01*
X139690000Y-116660000D02*
X151410000Y-116660000D01*
X139690000Y-112850000D02*
X139690000Y-116660000D01*
G04 #@! TO.C,J13*
X153590000Y-124010000D02*
X153590000Y-125348233D01*
X153590000Y-129435000D02*
X153590000Y-126651767D01*
X153590000Y-119565000D02*
X153590000Y-121990000D01*
X144470000Y-129435000D02*
X153590000Y-129435000D01*
X143470000Y-128435000D02*
X144470000Y-129435000D01*
X143470000Y-120565000D02*
X143470000Y-128435000D01*
X144470000Y-119565000D02*
X143470000Y-120565000D01*
X153590000Y-119565000D02*
X144470000Y-119565000D01*
G04 #@! TO.C,J17*
X195230000Y-113270000D02*
X196500000Y-113270000D01*
X195230000Y-112000000D02*
X195230000Y-113270000D01*
X197542929Y-104000000D02*
X197997071Y-104000000D01*
X197542929Y-104760000D02*
X197997071Y-104760000D01*
X200082929Y-104000000D02*
X200480000Y-104000000D01*
X200082929Y-104760000D02*
X200480000Y-104760000D01*
X209140000Y-104000000D02*
X203140000Y-104000000D01*
X209140000Y-104760000D02*
X209140000Y-104000000D01*
X203140000Y-104760000D02*
X209140000Y-104760000D01*
X200480000Y-105650000D02*
X203140000Y-105650000D01*
X197542929Y-106540000D02*
X197997071Y-106540000D01*
X197542929Y-107300000D02*
X197997071Y-107300000D01*
X200082929Y-106540000D02*
X200480000Y-106540000D01*
X200082929Y-107300000D02*
X200480000Y-107300000D01*
X209140000Y-106540000D02*
X203140000Y-106540000D01*
X209140000Y-107300000D02*
X209140000Y-106540000D01*
X203140000Y-107300000D02*
X209140000Y-107300000D01*
X200480000Y-108190000D02*
X203140000Y-108190000D01*
X197542929Y-109080000D02*
X197997071Y-109080000D01*
X197542929Y-109840000D02*
X197997071Y-109840000D01*
X200082929Y-109080000D02*
X200480000Y-109080000D01*
X200082929Y-109840000D02*
X200480000Y-109840000D01*
X209140000Y-109080000D02*
X203140000Y-109080000D01*
X209140000Y-109840000D02*
X209140000Y-109080000D01*
X203140000Y-109840000D02*
X209140000Y-109840000D01*
X200480000Y-110730000D02*
X203140000Y-110730000D01*
X197610000Y-111620000D02*
X197997071Y-111620000D01*
X197610000Y-112380000D02*
X197997071Y-112380000D01*
X200082929Y-111620000D02*
X200480000Y-111620000D01*
X200082929Y-112380000D02*
X200480000Y-112380000D01*
X203140000Y-111720000D02*
X209140000Y-111720000D01*
X203140000Y-111840000D02*
X209140000Y-111840000D01*
X203140000Y-111960000D02*
X209140000Y-111960000D01*
X203140000Y-112080000D02*
X209140000Y-112080000D01*
X203140000Y-112200000D02*
X209140000Y-112200000D01*
X203140000Y-112320000D02*
X209140000Y-112320000D01*
X209140000Y-111620000D02*
X203140000Y-111620000D01*
X209140000Y-112380000D02*
X209140000Y-111620000D01*
X203140000Y-112380000D02*
X209140000Y-112380000D01*
X203140000Y-113330000D02*
X200480000Y-113330000D01*
X203140000Y-103050000D02*
X203140000Y-113330000D01*
X200480000Y-103050000D02*
X203140000Y-103050000D01*
X200480000Y-113330000D02*
X200480000Y-103050000D01*
G04 #@! TO.C,J16*
X209360000Y-120790000D02*
X209360000Y-122040000D01*
X208110000Y-120790000D02*
X209360000Y-120790000D01*
X200000000Y-125200000D02*
X200000000Y-124700000D01*
X199900000Y-124700000D02*
X199900000Y-125200000D01*
X200100000Y-124700000D02*
X199900000Y-124700000D01*
X200100000Y-125200000D02*
X200100000Y-124700000D01*
X202000000Y-125200000D02*
X202000000Y-124700000D01*
X201900000Y-124700000D02*
X201900000Y-125200000D01*
X202100000Y-124700000D02*
X201900000Y-124700000D01*
X202100000Y-125200000D02*
X202100000Y-124700000D01*
X204000000Y-125200000D02*
X204000000Y-124700000D01*
X203900000Y-124700000D02*
X203900000Y-125200000D01*
X204100000Y-124700000D02*
X203900000Y-124700000D01*
X204100000Y-125200000D02*
X204100000Y-124700000D01*
X206000000Y-125200000D02*
X206000000Y-124700000D01*
X205900000Y-124700000D02*
X205900000Y-125200000D01*
X206100000Y-124700000D02*
X205900000Y-124700000D01*
X206100000Y-125200000D02*
X206100000Y-124700000D01*
X196940000Y-123700000D02*
X197550000Y-123700000D01*
X196940000Y-122400000D02*
X197550000Y-122400000D01*
X209060000Y-123700000D02*
X208450000Y-123700000D01*
X209060000Y-122400000D02*
X208450000Y-122400000D01*
X199500000Y-121700000D02*
X199500000Y-121090000D01*
X197550000Y-121700000D02*
X199500000Y-121700000D01*
X197550000Y-125200000D02*
X197550000Y-121700000D01*
X208450000Y-125200000D02*
X197550000Y-125200000D01*
X208450000Y-121700000D02*
X208450000Y-125200000D01*
X206500000Y-121700000D02*
X208450000Y-121700000D01*
X206500000Y-121090000D02*
X206500000Y-121700000D01*
X207300000Y-120990000D02*
X207600000Y-120990000D01*
X207600000Y-120890000D02*
X207600000Y-121090000D01*
X207300000Y-120890000D02*
X207600000Y-120890000D01*
X207300000Y-121090000D02*
X207300000Y-120890000D01*
X196940000Y-121090000D02*
X209060000Y-121090000D01*
X196940000Y-125810000D02*
X196940000Y-121090000D01*
X209060000Y-125810000D02*
X196940000Y-125810000D01*
X209060000Y-121090000D02*
X209060000Y-125810000D01*
G04 #@! TO.C,J15*
X209060000Y-67040000D02*
X209060000Y-73010000D01*
X209060000Y-73010000D02*
X198940000Y-73010000D01*
X198940000Y-73010000D02*
X198940000Y-67040000D01*
X198940000Y-67040000D02*
X209060000Y-67040000D01*
X205750000Y-67050000D02*
X205750000Y-67800000D01*
X205750000Y-67800000D02*
X202250000Y-67800000D01*
X202250000Y-67800000D02*
X202250000Y-67050000D01*
X202250000Y-67050000D02*
X205750000Y-67050000D01*
X209050000Y-67050000D02*
X209050000Y-67800000D01*
X209050000Y-67800000D02*
X207250000Y-67800000D01*
X207250000Y-67800000D02*
X207250000Y-67050000D01*
X207250000Y-67050000D02*
X209050000Y-67050000D01*
X200750000Y-67050000D02*
X200750000Y-67800000D01*
X200750000Y-67800000D02*
X198950000Y-67800000D01*
X198950000Y-67800000D02*
X198950000Y-67050000D01*
X198950000Y-67050000D02*
X200750000Y-67050000D01*
X209050000Y-69300000D02*
X208300000Y-69300000D01*
X208300000Y-69300000D02*
X208300000Y-72250000D01*
X208300000Y-72250000D02*
X204000000Y-72250000D01*
X198950000Y-69300000D02*
X199700000Y-69300000D01*
X199700000Y-69300000D02*
X199700000Y-72250000D01*
X199700000Y-72250000D02*
X204000000Y-72250000D01*
X208100000Y-66750000D02*
X209350000Y-66750000D01*
X209350000Y-66750000D02*
X209350000Y-68000000D01*
G04 #@! TO.C,J1*
X178770000Y-91770000D02*
X178770000Y-93100000D01*
X180100000Y-91770000D02*
X178770000Y-91770000D01*
X178770000Y-94370000D02*
X178770000Y-96970000D01*
X181370000Y-94370000D02*
X178770000Y-94370000D01*
X181370000Y-91770000D02*
X181370000Y-94370000D01*
X178770000Y-96970000D02*
X186510000Y-96970000D01*
X181370000Y-91770000D02*
X186510000Y-91770000D01*
X186510000Y-91770000D02*
X186510000Y-96970000D01*
G04 #@! TO.C,J2*
X160960000Y-70360000D02*
X154990000Y-70360000D01*
X154990000Y-70360000D02*
X154990000Y-57740000D01*
X154990000Y-57740000D02*
X160960000Y-57740000D01*
X160960000Y-57740000D02*
X160960000Y-70360000D01*
X160950000Y-67050000D02*
X160200000Y-67050000D01*
X160200000Y-67050000D02*
X160200000Y-61050000D01*
X160200000Y-61050000D02*
X160950000Y-61050000D01*
X160950000Y-61050000D02*
X160950000Y-67050000D01*
X160950000Y-70350000D02*
X160200000Y-70350000D01*
X160200000Y-70350000D02*
X160200000Y-68550000D01*
X160200000Y-68550000D02*
X160950000Y-68550000D01*
X160950000Y-68550000D02*
X160950000Y-70350000D01*
X160950000Y-59550000D02*
X160200000Y-59550000D01*
X160200000Y-59550000D02*
X160200000Y-57750000D01*
X160200000Y-57750000D02*
X160950000Y-57750000D01*
X160950000Y-57750000D02*
X160950000Y-59550000D01*
X158700000Y-70350000D02*
X158700000Y-69600000D01*
X158700000Y-69600000D02*
X155750000Y-69600000D01*
X155750000Y-69600000D02*
X155750000Y-64050000D01*
X158700000Y-57750000D02*
X158700000Y-58500000D01*
X158700000Y-58500000D02*
X155750000Y-58500000D01*
X155750000Y-58500000D02*
X155750000Y-64050000D01*
X161250000Y-69400000D02*
X161250000Y-70650000D01*
X161250000Y-70650000D02*
X160000000Y-70650000D01*
G04 #@! TO.C,J3*
X176850000Y-70650000D02*
X175600000Y-70650000D01*
X176850000Y-69400000D02*
X176850000Y-70650000D01*
X171350000Y-58500000D02*
X171350000Y-64050000D01*
X174300000Y-58500000D02*
X171350000Y-58500000D01*
X174300000Y-57750000D02*
X174300000Y-58500000D01*
X171350000Y-69600000D02*
X171350000Y-64050000D01*
X174300000Y-69600000D02*
X171350000Y-69600000D01*
X174300000Y-70350000D02*
X174300000Y-69600000D01*
X176550000Y-57750000D02*
X176550000Y-59550000D01*
X175800000Y-57750000D02*
X176550000Y-57750000D01*
X175800000Y-59550000D02*
X175800000Y-57750000D01*
X176550000Y-59550000D02*
X175800000Y-59550000D01*
X176550000Y-68550000D02*
X176550000Y-70350000D01*
X175800000Y-68550000D02*
X176550000Y-68550000D01*
X175800000Y-70350000D02*
X175800000Y-68550000D01*
X176550000Y-70350000D02*
X175800000Y-70350000D01*
X176550000Y-61050000D02*
X176550000Y-67050000D01*
X175800000Y-61050000D02*
X176550000Y-61050000D01*
X175800000Y-67050000D02*
X175800000Y-61050000D01*
X176550000Y-67050000D02*
X175800000Y-67050000D01*
X176560000Y-57740000D02*
X176560000Y-70360000D01*
X170590000Y-57740000D02*
X176560000Y-57740000D01*
X170590000Y-70360000D02*
X170590000Y-57740000D01*
X176560000Y-70360000D02*
X170590000Y-70360000D01*
G04 #@! TO.C,J4*
X192210000Y-70360000D02*
X186240000Y-70360000D01*
X186240000Y-70360000D02*
X186240000Y-57740000D01*
X186240000Y-57740000D02*
X192210000Y-57740000D01*
X192210000Y-57740000D02*
X192210000Y-70360000D01*
X192200000Y-67050000D02*
X191450000Y-67050000D01*
X191450000Y-67050000D02*
X191450000Y-61050000D01*
X191450000Y-61050000D02*
X192200000Y-61050000D01*
X192200000Y-61050000D02*
X192200000Y-67050000D01*
X192200000Y-70350000D02*
X191450000Y-70350000D01*
X191450000Y-70350000D02*
X191450000Y-68550000D01*
X191450000Y-68550000D02*
X192200000Y-68550000D01*
X192200000Y-68550000D02*
X192200000Y-70350000D01*
X192200000Y-59550000D02*
X191450000Y-59550000D01*
X191450000Y-59550000D02*
X191450000Y-57750000D01*
X191450000Y-57750000D02*
X192200000Y-57750000D01*
X192200000Y-57750000D02*
X192200000Y-59550000D01*
X189950000Y-70350000D02*
X189950000Y-69600000D01*
X189950000Y-69600000D02*
X187000000Y-69600000D01*
X187000000Y-69600000D02*
X187000000Y-64050000D01*
X189950000Y-57750000D02*
X189950000Y-58500000D01*
X189950000Y-58500000D02*
X187000000Y-58500000D01*
X187000000Y-58500000D02*
X187000000Y-64050000D01*
X192500000Y-69400000D02*
X192500000Y-70650000D01*
X192500000Y-70650000D02*
X191250000Y-70650000D01*
G04 #@! TO.C,J12*
X209060000Y-60040000D02*
X209060000Y-66010000D01*
X209060000Y-66010000D02*
X198940000Y-66010000D01*
X198940000Y-66010000D02*
X198940000Y-60040000D01*
X198940000Y-60040000D02*
X209060000Y-60040000D01*
X205750000Y-60050000D02*
X205750000Y-60800000D01*
X205750000Y-60800000D02*
X202250000Y-60800000D01*
X202250000Y-60800000D02*
X202250000Y-60050000D01*
X202250000Y-60050000D02*
X205750000Y-60050000D01*
X209050000Y-60050000D02*
X209050000Y-60800000D01*
X209050000Y-60800000D02*
X207250000Y-60800000D01*
X207250000Y-60800000D02*
X207250000Y-60050000D01*
X207250000Y-60050000D02*
X209050000Y-60050000D01*
X200750000Y-60050000D02*
X200750000Y-60800000D01*
X200750000Y-60800000D02*
X198950000Y-60800000D01*
X198950000Y-60800000D02*
X198950000Y-60050000D01*
X198950000Y-60050000D02*
X200750000Y-60050000D01*
X209050000Y-62300000D02*
X208300000Y-62300000D01*
X208300000Y-62300000D02*
X208300000Y-65250000D01*
X208300000Y-65250000D02*
X204000000Y-65250000D01*
X198950000Y-62300000D02*
X199700000Y-62300000D01*
X199700000Y-62300000D02*
X199700000Y-65250000D01*
X199700000Y-65250000D02*
X204000000Y-65250000D01*
X208100000Y-59750000D02*
X209350000Y-59750000D01*
X209350000Y-59750000D02*
X209350000Y-61000000D01*
G04 #@! TO.C,J9*
X209350000Y-52750000D02*
X209350000Y-54000000D01*
X208100000Y-52750000D02*
X209350000Y-52750000D01*
X199700000Y-58250000D02*
X204000000Y-58250000D01*
X199700000Y-55300000D02*
X199700000Y-58250000D01*
X198950000Y-55300000D02*
X199700000Y-55300000D01*
X208300000Y-58250000D02*
X204000000Y-58250000D01*
X208300000Y-55300000D02*
X208300000Y-58250000D01*
X209050000Y-55300000D02*
X208300000Y-55300000D01*
X198950000Y-53050000D02*
X200750000Y-53050000D01*
X198950000Y-53800000D02*
X198950000Y-53050000D01*
X200750000Y-53800000D02*
X198950000Y-53800000D01*
X200750000Y-53050000D02*
X200750000Y-53800000D01*
X207250000Y-53050000D02*
X209050000Y-53050000D01*
X207250000Y-53800000D02*
X207250000Y-53050000D01*
X209050000Y-53800000D02*
X207250000Y-53800000D01*
X209050000Y-53050000D02*
X209050000Y-53800000D01*
X202250000Y-53050000D02*
X205750000Y-53050000D01*
X202250000Y-53800000D02*
X202250000Y-53050000D01*
X205750000Y-53800000D02*
X202250000Y-53800000D01*
X205750000Y-53050000D02*
X205750000Y-53800000D01*
X198940000Y-53040000D02*
X209060000Y-53040000D01*
X198940000Y-59010000D02*
X198940000Y-53040000D01*
X209060000Y-59010000D02*
X198940000Y-59010000D01*
X209060000Y-53040000D02*
X209060000Y-59010000D01*
G04 #@! TO.C,J6*
X209060000Y-81540000D02*
X209060000Y-87510000D01*
X209060000Y-87510000D02*
X201440000Y-87510000D01*
X201440000Y-87510000D02*
X201440000Y-81540000D01*
X201440000Y-81540000D02*
X209060000Y-81540000D01*
X205750000Y-81550000D02*
X205750000Y-82300000D01*
X205750000Y-82300000D02*
X204750000Y-82300000D01*
X204750000Y-82300000D02*
X204750000Y-81550000D01*
X204750000Y-81550000D02*
X205750000Y-81550000D01*
X209050000Y-81550000D02*
X209050000Y-82300000D01*
X209050000Y-82300000D02*
X207250000Y-82300000D01*
X207250000Y-82300000D02*
X207250000Y-81550000D01*
X207250000Y-81550000D02*
X209050000Y-81550000D01*
X203250000Y-81550000D02*
X203250000Y-82300000D01*
X203250000Y-82300000D02*
X201450000Y-82300000D01*
X201450000Y-82300000D02*
X201450000Y-81550000D01*
X201450000Y-81550000D02*
X203250000Y-81550000D01*
X209050000Y-83800000D02*
X208300000Y-83800000D01*
X208300000Y-83800000D02*
X208300000Y-86750000D01*
X208300000Y-86750000D02*
X205250000Y-86750000D01*
X201450000Y-83800000D02*
X202200000Y-83800000D01*
X202200000Y-83800000D02*
X202200000Y-86750000D01*
X202200000Y-86750000D02*
X205250000Y-86750000D01*
X208100000Y-81250000D02*
X209350000Y-81250000D01*
X209350000Y-81250000D02*
X209350000Y-82500000D01*
G04 #@! TO.C,J7*
X209350000Y-73750000D02*
X209350000Y-75000000D01*
X208100000Y-73750000D02*
X209350000Y-73750000D01*
X202200000Y-79250000D02*
X205250000Y-79250000D01*
X202200000Y-76300000D02*
X202200000Y-79250000D01*
X201450000Y-76300000D02*
X202200000Y-76300000D01*
X208300000Y-79250000D02*
X205250000Y-79250000D01*
X208300000Y-76300000D02*
X208300000Y-79250000D01*
X209050000Y-76300000D02*
X208300000Y-76300000D01*
X201450000Y-74050000D02*
X203250000Y-74050000D01*
X201450000Y-74800000D02*
X201450000Y-74050000D01*
X203250000Y-74800000D02*
X201450000Y-74800000D01*
X203250000Y-74050000D02*
X203250000Y-74800000D01*
X207250000Y-74050000D02*
X209050000Y-74050000D01*
X207250000Y-74800000D02*
X207250000Y-74050000D01*
X209050000Y-74800000D02*
X207250000Y-74800000D01*
X209050000Y-74050000D02*
X209050000Y-74800000D01*
X204750000Y-74050000D02*
X205750000Y-74050000D01*
X204750000Y-74800000D02*
X204750000Y-74050000D01*
X205750000Y-74800000D02*
X204750000Y-74800000D01*
X205750000Y-74050000D02*
X205750000Y-74800000D01*
X201440000Y-74040000D02*
X209060000Y-74040000D01*
X201440000Y-80010000D02*
X201440000Y-74040000D01*
X209060000Y-80010000D02*
X201440000Y-80010000D01*
X209060000Y-74040000D02*
X209060000Y-80010000D01*
G04 #@! TO.C,J5*
X147560000Y-74040000D02*
X147560000Y-80010000D01*
X147560000Y-80010000D02*
X139940000Y-80010000D01*
X139940000Y-80010000D02*
X139940000Y-74040000D01*
X139940000Y-74040000D02*
X147560000Y-74040000D01*
X144250000Y-74050000D02*
X144250000Y-74800000D01*
X144250000Y-74800000D02*
X143250000Y-74800000D01*
X143250000Y-74800000D02*
X143250000Y-74050000D01*
X143250000Y-74050000D02*
X144250000Y-74050000D01*
X147550000Y-74050000D02*
X147550000Y-74800000D01*
X147550000Y-74800000D02*
X145750000Y-74800000D01*
X145750000Y-74800000D02*
X145750000Y-74050000D01*
X145750000Y-74050000D02*
X147550000Y-74050000D01*
X141750000Y-74050000D02*
X141750000Y-74800000D01*
X141750000Y-74800000D02*
X139950000Y-74800000D01*
X139950000Y-74800000D02*
X139950000Y-74050000D01*
X139950000Y-74050000D02*
X141750000Y-74050000D01*
X147550000Y-76300000D02*
X146800000Y-76300000D01*
X146800000Y-76300000D02*
X146800000Y-79250000D01*
X146800000Y-79250000D02*
X143750000Y-79250000D01*
X139950000Y-76300000D02*
X140700000Y-76300000D01*
X140700000Y-76300000D02*
X140700000Y-79250000D01*
X140700000Y-79250000D02*
X143750000Y-79250000D01*
X146600000Y-73750000D02*
X147850000Y-73750000D01*
X147850000Y-73750000D02*
X147850000Y-75000000D01*
G04 #@! TO.C,J8*
X147850000Y-81750000D02*
X147850000Y-83000000D01*
X146600000Y-81750000D02*
X147850000Y-81750000D01*
X140700000Y-87250000D02*
X143750000Y-87250000D01*
X140700000Y-84300000D02*
X140700000Y-87250000D01*
X139950000Y-84300000D02*
X140700000Y-84300000D01*
X146800000Y-87250000D02*
X143750000Y-87250000D01*
X146800000Y-84300000D02*
X146800000Y-87250000D01*
X147550000Y-84300000D02*
X146800000Y-84300000D01*
X139950000Y-82050000D02*
X141750000Y-82050000D01*
X139950000Y-82800000D02*
X139950000Y-82050000D01*
X141750000Y-82800000D02*
X139950000Y-82800000D01*
X141750000Y-82050000D02*
X141750000Y-82800000D01*
X145750000Y-82050000D02*
X147550000Y-82050000D01*
X145750000Y-82800000D02*
X145750000Y-82050000D01*
X147550000Y-82800000D02*
X145750000Y-82800000D01*
X147550000Y-82050000D02*
X147550000Y-82800000D01*
X143250000Y-82050000D02*
X144250000Y-82050000D01*
X143250000Y-82800000D02*
X143250000Y-82050000D01*
X144250000Y-82800000D02*
X143250000Y-82800000D01*
X144250000Y-82050000D02*
X144250000Y-82800000D01*
X139940000Y-82040000D02*
X147560000Y-82040000D01*
X139940000Y-88010000D02*
X139940000Y-82040000D01*
X147560000Y-88010000D02*
X139940000Y-88010000D01*
X147560000Y-82040000D02*
X147560000Y-88010000D01*
G04 #@! TD*
M02*
