M48
; DRILL file {KiCad 5.1.5+dfsg1-2build2} date Sun Sep 26 16:39:44 2021
; FORMAT={-:-/ absolute / metric / decimal}
; #@! TF.CreationDate,2021-09-26T16:39:44+00:00
; #@! TF.GenerationSoftware,Kicad,Pcbnew,5.1.5+dfsg1-2build2
FMAT,2
METRIC
T1C0.300
T2C0.400
T3C0.500
T4C0.600
T5C0.750
T6C0.850
T7C0.950
T8C1.000
T9C1.020
T10C3.000
T11C3.200
%
G90
G05
T1
X147.8Y-94.8
X147.8Y-95.9
X149.5Y-95.3
X156.7Y-82.7
X161.5Y-89.8
X162.6Y-86.1
X163.8Y-83.25
X163.8Y-84.25
X165.8Y-104.2
X166.8Y-80.8
X166.8Y-83.75
X166.8Y-84.75
X167.0Y-85.8
X167.4Y-86.7
X168.5Y-86.4
X168.9Y-81.7
X169.2Y-92.1
X169.2Y-93.3
X169.2Y-94.5
X169.4Y-87.0
X169.6Y-78.0
X170.0Y-77.1
X170.1Y-105.1
X170.1Y-107.1
X170.2Y-89.2
X171.1Y-88.5
X171.4Y-76.2
X171.5Y-77.2
X172.8Y-89.5
X174.55Y-86.45
X174.7Y-83.2
X174.7Y-84.3
X174.7Y-85.4
X175.2Y-87.9
X175.5Y-88.8
X176.65Y-76.3
X178.1Y-84.1
X178.4Y-89.3
X178.5Y-85.2
X178.8Y-87.327
X179.1Y-88.5
X179.2Y-84.0
X180.2Y-84.0
X180.7Y-83.4
X180.75Y-87.85
X181.2Y-89.2
X181.6Y-75.7
X182.4Y-83.8
X183.2Y-82.8
X184.2Y-83.8
X185.0Y-82.8
X185.6Y-84.2
X185.8Y-89.7
X186.3Y-86.3
X186.3Y-88.1
X188.0Y-83.0
X164.9Y-121.7
X164.9Y-122.8
X164.9Y-124.1
X164.9Y-125.3
X166.1Y-121.7
X166.1Y-122.8
X166.1Y-124.1
X166.1Y-125.3
T2
X142.7Y-97.0
X149.2Y-92.0
X150.1Y-93.0
X151.2Y-71.8
X151.6Y-69.0
X152.7Y-64.3
X154.1Y-62.1
X154.1Y-66.6
X154.4Y-78.7
X154.6Y-80.2
X155.6Y-77.8
X155.6Y-79.4
X155.7Y-112.9
X156.1Y-80.8
X156.7Y-99.5
X157.3Y-58.6
X157.9Y-55.3
X159.4Y-55.3
X159.8Y-58.7
X160.9Y-81.5
X160.9Y-84.4
X161.5Y-80.2
X161.5Y-83.0
X161.8Y-91.0
X162.8Y-88.1
X162.85Y-89.1
X164.3Y-99.8
X165.0Y-78.9
X166.5Y-78.3
X166.9Y-73.7
X166.9Y-96.3
X167.5Y-76.8
X167.9Y-71.9
X168.5Y-64.3
X169.8Y-62.1
X169.8Y-66.5
X170.5Y-83.0
X170.5Y-86.0
X171.75Y-84.5
X172.5Y-94.2
X172.7Y-58.6
X173.25Y-83.0
X173.25Y-86.0
X173.4Y-55.3
X173.5Y-76.7
X174.4Y-94.1
X174.48Y-76.7
X174.9Y-55.3
X175.3Y-58.7
X175.8Y-106.0
X176.0Y-92.4
X176.0Y-93.4
X177.6Y-104.2
X178.3Y-108.5
X180.1Y-106.7
X180.8Y-97.8
X182.0Y-104.2
X182.1Y-108.6
X182.3Y-69.2
X183.8Y-78.7
X184.0Y-105.8
X184.15Y-64.2
X185.4Y-104.6
X185.45Y-62.0
X185.45Y-66.5
X186.0Y-78.7
X187.0Y-81.7
X187.0Y-105.9
X187.7Y-96.5
X187.8Y-85.7
X187.8Y-88.7
X188.0Y-78.6
X188.0Y-104.1
X188.6Y-97.0
X188.9Y-58.6
X188.9Y-87.2
X189.5Y-55.3
X190.1Y-89.1
X190.9Y-77.2
X191.0Y-55.3
X191.3Y-58.7
X193.5Y-77.2
X197.5Y-99.5
X199.5Y-94.0
X199.5Y-98.0
X201.35Y-58.2
X201.5Y-99.5
X201.7Y-65.2
X201.8Y-72.2
X203.5Y-94.5
X203.5Y-97.5
X204.5Y-57.4
X204.5Y-64.4
X204.5Y-71.3
X204.5Y-99.5
X205.0Y-92.5
X205.0Y-96.0
X207.0Y-98.0
X208.0Y-92.0
X208.0Y-95.5
T3
X140.7Y-74.4
X140.7Y-82.4
X141.4Y-126.8
X141.4Y-128.8
X143.2Y-130.5
X144.8Y-128.8
X146.4Y-130.5
X146.8Y-127.0
X148.0Y-128.8
X148.7Y-78.9
X148.7Y-82.0
X149.6Y-127.0
X149.6Y-130.6
X150.4Y-80.7
X151.0Y-128.8
X151.2Y-120.8
X151.5Y-119.0
X152.0Y-79.0
X152.0Y-82.5
X152.5Y-120.0
X152.5Y-121.6
X152.8Y-58.9
X152.8Y-130.6
X153.9Y-120.7
X154.0Y-119.0
X154.5Y-128.75
X155.1Y-93.1
X155.1Y-97.7
X155.1Y-119.9
X155.2Y-91.0
X155.4Y-59.2
X156.0Y-127.0
X156.0Y-130.5
X156.6Y-91.0
X157.7Y-120.5
X157.75Y-128.75
X158.0Y-91.0
X158.4Y-93.1
X158.5Y-97.8
X158.9Y-100.5
X159.0Y-95.4
X159.25Y-127.0
X159.25Y-130.5
X160.6Y-128.8
X160.7Y-121.5
X161.2Y-92.5
X161.2Y-94.5
X161.2Y-96.5
X164.5Y-128.0
X166.0Y-112.5
X166.0Y-116.0
X166.0Y-119.0
X168.0Y-111.0
X168.0Y-114.25
X168.0Y-117.6
X168.5Y-59.0
X171.1Y-59.2
X171.9Y-120.7
X174.3Y-112.6
X177.1Y-94.9
X182.7Y-81.7
X184.2Y-58.8
X186.8Y-59.0
X188.81Y-80.39
X191.7Y-105.6
X191.7Y-111.0
X193.5Y-105.65
X193.5Y-108.6
X193.5Y-111.0
X193.7Y-98.9
X195.2Y-97.0
X203.1Y-92.2
T5
X199.0Y-122.9
X201.0Y-122.9
X203.0Y-122.9
X205.0Y-122.9
X207.0Y-122.9
T6
X143.762Y-93.2
X143.762Y-98.2
T7
X201.5Y-55.5
X204.0Y-55.5
X206.5Y-55.5
X201.5Y-69.5
X204.0Y-69.5
X206.5Y-69.5
X201.5Y-62.5
X204.0Y-62.5
X206.5Y-62.5
X189.75Y-60.3
X189.75Y-62.8
X189.75Y-65.3
X189.75Y-67.8
X174.1Y-60.3
X174.1Y-62.8
X174.1Y-65.3
X174.1Y-67.8
X158.5Y-60.3
X158.5Y-62.8
X158.5Y-65.3
X158.5Y-67.8
T8
X204.0Y-76.5
X206.5Y-76.5
X196.5Y-104.38
X196.5Y-106.92
X196.5Y-109.46
X196.5Y-112.0
X199.04Y-104.38
X199.04Y-106.92
X199.04Y-109.46
X199.04Y-112.0
X142.5Y-76.5
X145.0Y-76.5
X180.5Y-55.18
X180.5Y-57.72
X180.5Y-60.26
X180.5Y-62.8
X180.5Y-65.34
X180.5Y-67.88
X180.5Y-70.42
X180.5Y-72.96
X183.04Y-55.18
X185.58Y-55.18
X193.2Y-55.18
X193.2Y-57.72
X193.2Y-60.26
X193.2Y-62.8
X193.2Y-65.34
X193.2Y-67.88
X193.2Y-70.42
X193.2Y-72.96
X149.22Y-55.18
X149.22Y-57.72
X149.22Y-60.26
X149.22Y-62.8
X149.22Y-65.34
X149.22Y-67.88
X149.22Y-70.42
X149.22Y-72.96
X151.76Y-55.18
X154.3Y-55.18
X161.92Y-55.18
X161.92Y-57.72
X161.92Y-60.26
X161.92Y-62.8
X161.92Y-65.34
X161.92Y-67.88
X161.92Y-70.42
X161.92Y-72.96
X164.86Y-55.18
X164.86Y-57.72
X164.86Y-60.26
X164.86Y-62.8
X164.86Y-65.34
X164.86Y-67.88
X164.86Y-70.42
X164.86Y-72.96
X167.4Y-55.18
X169.94Y-55.18
X177.56Y-55.18
X177.56Y-57.72
X177.56Y-60.26
X177.56Y-62.8
X177.56Y-65.34
X177.56Y-67.88
X177.56Y-70.42
X177.56Y-72.96
X149.0Y-111.6
X149.0Y-114.1
X204.0Y-84.0
X206.5Y-84.0
X142.5Y-84.5
X145.0Y-84.5
X180.1Y-93.1
X180.1Y-95.64
X182.64Y-93.1
X182.64Y-95.64
X185.18Y-93.1
X185.18Y-95.64
T9
X152.5Y-123.0
X152.5Y-126.0
X197.0Y-94.0
X197.0Y-97.0
T10
X148.18Y-124.5
X201.32Y-95.5
T11
X150.0Y-105.0
X192.5Y-86.0
X192.5Y-124.0
T4
X140.713Y-92.2G85X141.412Y-92.2
G05
X141.412Y-99.2G85X140.713Y-99.2
G05
T0
M30
